<?xml version="1.0" encoding="utf-8"?>
<svg xmlns="http://www.w3.org/2000/svg" xmlns:xlink="http://www.w3.org/1999/xlink" version= "1.1" width="486px" height="485px" viewBox="299 900 486 485">
<g id="layer1">
<g style="fill:rgb(229,230,230); fill-opacity:1.0; stroke-linejoin: miter">
<path d="M647.0996,1011.8155L654.7539,1012.37213L662.3494,1014.0041Q669.9157,1016.17413,677.1172,1020.269Q691.64404,1028.5725,703.2275,1043.2236Q714.8109,1057.8748,721.47186,1077.0688L724.7096,1088.3503Q727.3455,1099.693,727.6727,1110.743Q728.4613,1144.9695,710.1965,1166.8691L703.69104,1173.1986L696.22327,1178.3049L687.8171,1182.0533Q675.265,1186.0814,663.7389,1184.2174L656.1432,1182.5852Q648.5769,1180.4155,641.3752,1176.3201Q626.84845,1168.0168,615.26483,1153.3657Q609.5349,1146.0966,604.912,1137.5789L600.6276,1128.8053Q596.83563,1120.519,593.7829,1108.2391L591.72394,1096.9695Q587.5076,1062.1019,602.7771,1037.1381Q619.60004,1012.0924,647.0996,1011.8155 M433.9146,1053.036L434.54236,1053.0398L445.3125,1054.3083Q453.9347,1056.2975,461.43787,1060.9596L468.60086,1066.1763Q475.4542,1072.0054,480.82642,1079.8281Q497.4256,1104.2008,496.35797,1138.3899Q494.1892,1171.6943,476.05658,1194.1688Q457.92395,1216.6436,430.97702,1217.5392Q431.68506,1218.0558,419.6102,1216.2754Q410.9833,1214.2896,403.476,1209.6296L396.30878,1204.4138Q389.4518,1198.5863,384.076,1190.7621Q367.4664,1166.3851,368.53394,1132.1853Q370.7028,1098.881,388.8353,1076.4064Q406.9678,1053.9315,433.9146,1053.036 M544.7291,909.69684L513.12445,911.8231Q417.61237,926.9387,360.34787,1000.28265Q303.12946,1074.1339,313.94418,1174.2125Q329.0601,1269.724,402.40393,1326.989Q476.25525,1384.2076,576.3337,1373.3931Q671.8451,1358.2767,729.1101,1284.9331Q786.32886,1211.0818,775.5141,1111.0033Q760.39777,1015.4911,687.05396,958.22687Q663.34607,939.8785,635.3884,928.0002L606.646,918.01666Q576.9798,909.7894,544.7291,909.69684 Z"/>
</g>
<g style="fill:rgb(0,4,18); fill-opacity:1.0; stroke-linejoin: miter">
<path d="M678.43384,1129.5225L678.42535,1129.5326Q678.41003,1129.5507,678.40564,1129.5576L678.404,1129.5607L678.40356,1129.5629L678.40424,1129.5643L678.406,1129.5651Q678.40826,1129.5654,678.4125,1129.5652L678.4374,1129.5634L678.4382,1129.5632L678.4434,1129.563Q678.447,1129.563,678.4513,1129.5635L678.4553,1129.5641L678.459,1129.5653L678.4619,1129.567L678.46375,1129.5693L678.4641,1129.5725L678.46277,1129.5765L678.4593,1129.5815L678.4549,1129.585L678.451,1129.5847L678.4475,1129.5815L678.44446,1129.5759L678.44183,1129.5686L678.43964,1129.5602L678.4378,1129.5513Q678.4346,1129.5326,678.43384,1129.5225"/>
</g>
</g>
<g id="layer2">
<g style="fill:rgb(0,5,19); fill-opacity:1.0; stroke-linejoin: miter">
<path d="M783.9893,1142.6079L783.9893,1142.6079C783.9893,1274.7476,676.8687,1381.8682,544.7291,1381.8682L544.7291,1381.8682C412.58923,1381.8682,305.46887,1274.7479,305.46887,1142.6079L305.46887,1142.6079C305.46887,1010.46826,412.58923,903.3478,544.7291,903.3478L544.7291,903.3478C676.8687,903.3478,783.9893,1010.46826,783.9893,1142.6079L783.9893,1142.6079 M776.9893,1142.6079L776.9893,1142.6079C776.9893,1014.3343,673.0027,910.3478,544.7291,910.3478L544.7291,910.3478C416.4552,910.3478,312.46887,1014.3343,312.46887,1142.6079L312.46887,1142.6079C312.46887,1270.882,416.4552,1374.8682,544.7291,1374.8682L544.7291,1374.8682C673.0027,1374.8682,776.9893,1270.8817,776.9893,1142.6079 Z"/>
</g>
<g style="fill:rgb(0,0,0); fill-opacity:1.0; stroke-linejoin: miter">
<path d="M497.00818,1138.4214L497.00818,1138.4214C494.85175,1182.8488,465.24124,1219.915,428.42502,1218.1282L428.42496,1218.1282C391.6088,1216.3411,365.72726,1176.5815,367.88373,1132.1538L367.88373,1132.1538C370.04016,1087.7263,399.65073,1050.6599,436.46692,1052.447L436.46686,1052.447C473.2832,1054.2339,499.16464,1093.9937,497.00818,1138.4214L497.00818,1138.4214 M487.01996,1137.9365L487.01996,1137.9365C489.0372,1096.3773,464.96307,1063.8418,435.98212,1062.4353L435.98206,1062.4353C407.00122,1061.0286,379.88916,1091.0796,377.87195,1132.6387L377.87195,1132.6387C375.8547,1174.1978,399.9289,1206.7332,428.90982,1208.1399L428.90976,1208.1399C457.89078,1209.5464,485.00278,1179.4955,487.01996,1137.9365 Z"/>
</g>
<g style="fill:rgb(0,0,0); fill-opacity:1.0; stroke-linejoin: miter">
<path d="M722.08795,1076.8588L722.08795,1076.8588C737.47675,1121.9723,724.00507,1170.3972,688.0272,1182.6696L688.0272,1182.6696C652.0498,1194.9417,611.79297,1164.8441,596.40436,1119.7307L596.40436,1119.7307C581.01556,1074.6168,594.4876,1026.1923,630.46515,1013.9201L630.46515,1013.9201C666.44275,1001.64777,706.6992,1031.7449,722.08795,1076.8588L722.08795,1076.8588 M712.6235,1080.0873L712.6235,1080.0873C698.0045,1037.2301,661.902,1013.7624,633.69354,1023.3846L633.69354,1023.3846C605.4851,1033.0067,591.24994,1073.6454,605.86884,1116.5022L605.86884,1116.5022C620.48773,1159.3591,656.59045,1182.827,684.7988,1173.205L684.7988,1173.205C713.0072,1163.5828,727.2425,1122.9441,712.6235,1080.0873 Z"/>
</g>
<g style="fill:rgb(0,0,0); fill-opacity:1.0; stroke-linejoin: miter">
<path d="M639.82855,724.3396L639.82855,724.3396L639.82855,724.3396L639.82855,724.3396L639.82855,724.3396L639.82855,724.3396L639.82855,724.3396L639.82855,724.3396L639.82855,724.3396L639.82855,724.3396 M639.82855,734.3396L639.82855,734.3396L639.82855,734.3396L639.82855,734.3396L639.82855,734.3396L639.82855,734.3396L639.82855,734.3396L639.82855,734.3396L639.82855,734.3396 Z"/>
</g>
<g style="fill:rgb(0,0,0); fill-opacity:1.0; stroke-linejoin: miter">
<path d="M310.94254,745.85925L310.94254,745.85925L310.94254,745.85925L310.94254,745.85925L310.94254,745.85925L310.94254,745.85925L310.94254,745.85925L310.94254,745.85925L310.94254,745.85925L310.94254,745.85925 M310.94254,755.85925L310.94254,755.85925L310.94254,755.85925L310.94254,755.85925L310.94254,755.85925L310.94254,755.85925L310.94254,755.85925L310.94254,755.85925L310.94254,755.85925 Z"/>
</g>
<g style="fill:rgb(0,0,0); fill-opacity:1.0; stroke-linejoin: miter">
<path d="M333.84424,652.4628L333.84424,652.4628L333.84424,652.4628L333.84424,652.4628L333.84424,652.4628L333.84424,652.4628L333.84424,652.4628L333.84424,652.4628L333.84424,652.4628L333.84424,652.4628 M333.84424,662.4628L333.84424,662.4628L333.84424,662.4628L333.84424,662.4628L333.84424,662.4628L333.84424,662.4628L333.84424,662.4628L333.84424,662.4628L333.84424,662.4628 Z"/>
</g>
<g style="fill:rgb(0,0,0); fill-opacity:1.0; stroke-linejoin: miter">
<path d="M213.70865,461.18704L213.70865,461.18704L213.70865,461.18704L213.70865,461.18704L213.70865,461.18704L213.70865,461.18704L213.70865,461.18704L213.70865,461.18704L213.70865,461.18704L213.70865,461.18704 M213.70865,471.18704L213.70865,471.18704L213.70865,471.18704L213.70865,471.18704L213.70865,471.18704L213.70865,471.18704L213.70865,471.18704L213.70865,471.18704L213.70865,471.18704 Z"/>
</g>
<g style="fill:rgb(0,0,0); fill-opacity:1.0; stroke-linejoin: miter">
<path d="M213.70865,461.18704L213.70865,461.18704L213.70865,461.18704L213.70865,461.18704L213.70865,461.18704L213.70865,461.18704L213.70865,461.18704L213.70865,461.18704L213.70865,461.18704L213.70865,461.18704 M213.70865,471.18704L213.70865,471.18704L213.70865,471.18704L213.70865,471.18704L213.70865,471.18704L213.70865,471.18704L213.70865,471.18704L213.70865,471.18704L213.70865,471.18704 Z"/>
</g>
<g style="fill:rgb(201,202,202); fill-opacity:0.38039216; stroke-linejoin: miter">
<path d="M242.04602,984.45593L242.04602,984.45593L242.04602,984.45593L242.04602,984.45593L242.04602,984.45593L242.04602,984.45593L242.04602,984.45593L242.04602,984.45593L242.04602,984.45593L242.04602,984.45593 M242.04602,994.45593L242.04602,994.45593L242.04602,994.45593L242.04602,994.45593L242.04602,994.45593L242.04602,994.45593L242.04602,994.45593L242.04602,994.45593L242.04602,994.45593 Z"/>
</g>
<g style="fill:rgb(201,202,202); fill-opacity:0.38039216; stroke-linejoin: miter">
<path d="M354.9131,1202.2861L354.9131,1202.2861L354.9131,1202.2861L354.9131,1202.2861L354.9131,1202.2861L354.9131,1202.2861L354.9131,1202.2861L354.9131,1202.2861L354.9131,1202.2861L354.9131,1202.2861 M354.9131,1212.2861L354.9131,1212.2861L354.9131,1212.2861L354.9131,1212.2861L354.9131,1212.2861L354.9131,1212.2861L354.9131,1212.2861L354.9131,1212.2861L354.9131,1212.2861 Z"/>
</g>
</g>
<g id="layer3">
<g style="fill:rgb(0,4,18); fill-opacity:1.0; stroke-linejoin: miter">
<path d="M438.64972,1274.6992L439.38232,1275.6793Q450.79883,1289.061,467.5051,1305.6709Q477.02612,1315.4374,493.0025,1329.5729L488.7745,1325.2346Q477.16068,1311.6107,472.1663,1306.5328Q462.67297,1296.9058,453.78693,1288.4044Q453.22702,1287.6973,438.64972,1274.6992"/>
</g>
<g style="fill:rgb(0,4,18); fill-opacity:1.0; stroke-linejoin: miter">
<path d="M428.78775,1302.9498L429.60846,1302.8535Q440.4021,1300.8722,458.19492,1295.8188Q468.0967,1292.9359,478.74442,1288.6233L477.95178,1288.8104L474.81274,1289.6997Q462.89734,1291.7267,458.28357,1293.0236Q449.55072,1295.5743,441.70566,1298.2255Q431.22247,1301.9427,429.92975,1302.598L428.78775,1302.9498"/>
</g>
<g style="fill:rgb(0,4,18); fill-opacity:1.0; stroke-linejoin: miter">
<path d="M580.3428,933.1829L581.1433,933.60864Q592.1201,938.5697,611.3311,945.1651Q622.0578,948.7979,634.3139,951.73395L630.0969,950.2325Q618.0563,944.68097,613.08734,942.9465Q603.63025,939.72595,594.91833,937.1269Q583.1618,933.8258,581.59125,933.5869L580.3428,933.1829"/>
</g>
<g style="fill:rgb(0,4,18); fill-opacity:1.0; stroke-linejoin: miter">
<path d="M556.64185,943.82153L557.5145,944.3658Q570.5466,951.32,588.7222,959.1023Q594.6151,961.66876,600.79913,964.0575Q615.90173,969.6737,616.12805,969.57837L611.48206,967.5131Q598.26324,960.3334,592.7876,957.9351Q582.3735,953.4284,572.7644,949.6541Q559.76843,944.8189,558.01904,944.39124L556.64185,943.82153"/>
</g>
<g style="fill:rgb(0,4,18); fill-opacity:1.0; stroke-linejoin: miter">
<path d="M620.7482,926.58044L619.7947,926.92Q606.4648,932.7162,589.35376,941.97394Q579.36255,947.1763,564.5388,956.7295L568.9706,954.4082Q582.5945,948.61707,587.7898,945.85895Q597.62683,940.5761,606.4046,935.4627Q618.07,928.38513,619.4675,927.2949L620.7482,926.58044"/>
</g>
<g style="fill:rgb(0,4,18); fill-opacity:1.0; stroke-linejoin: miter">
<path d="M623.7509,942.46545L622.9629,942.7829Q612.7882,947.6622,596.49335,957.47504Q587.44,962.9994,578.0112,970.1112L581.624,967.98505Q592.8875,962.73846,597.11847,960.21063Q605.105,955.3374,612.1876,950.61017Q621.6022,944.1153,622.7116,943.12115L623.7509,942.46545"/>
</g>
<g style="fill:rgb(0,4,18); fill-opacity:1.0; stroke-linejoin: miter">
<path d="M719.7871,1229.8799L719.7353,1229.9633Q719.00494,1231.4021,718.19586,1233.5271Q713.2711,1246.864,712.6577,1248.2241L708.50684,1257.8279Q705.0011,1265.3483,700.4311,1271.5759Q695.7618,1277.881,689.4105,1283.8701Q687.50665,1285.7461,680.9401,1291.4497Q662.9391,1306.4999,663.05896,1306.8362Q692.0426,1289.4896,705.33997,1269.2385Q711.12164,1259.8723,713.9117,1251.9412Q718.4526,1239.2192,719.7871,1229.8799"/>
</g>
<g style="fill:rgb(0,4,18); fill-opacity:1.0; stroke-linejoin: miter">
<path d="M738.9688,1231.0458L738.9325,1231.1152Q738.427,1232.303,737.901,1234.0432L734.37683,1245.8519Q733.50964,1248.6222,732.2416,1252.0402Q728.693,1261.3744,725.29474,1266.8873Q721.6877,1272.9023,716.8586,1278.9241Q710.33453,1286.9497,698.62683,1300.4595L694.86664,1305.2362Q719.10425,1284.3303,729.6271,1264.7202Q733.4416,1257.559,735.68854,1249.3815Q738.6288,1238.4382,738.9688,1231.0458"/>
</g>
<g style="fill:rgb(0,4,18); fill-opacity:1.0; stroke-linejoin: miter">
<path d="M749.4721,1262.4575L749.4721,1262.4575Q749.4746,1262.4576,749.48596,1262.4578Q749.4901,1262.4578,749.4961,1262.4578L749.50165,1262.4578Q749.50665,1262.4579,749.51,1262.4579Q749.51337,1262.4579,749.5154,1262.4579L749.51715,1262.4579Q749.5186,1262.458,749.5192,1262.458Q749.5204,1262.458,749.52014,1262.4583Q749.5197,1262.4581,749.52106,1262.4581Q749.52216,1262.458,749.5273,1262.458Q749.5299,1262.458,749.53406,1262.4579L749.53864,1262.4579Q749.5442,1262.4579,749.54974,1262.4579L749.5543,1262.4579L749.5581,1262.4578Q749.56146,1262.4578,749.5635,1262.4578Q749.56885,1262.4576,749.56824,1262.4575L749.4721,1262.4575"/>
</g>
<g style="fill:rgb(0,4,18); fill-opacity:1.0; stroke-linejoin: miter">
<path d="M403.65424,1030.6906L403.38922,1030.1772Q398.17023,1021.48175,382.95923,1002.03815Q380.52393,999.0421,378.4992,997.8884Q377.48972,997.34094,376.6002,997.4303L375.7435,997.70825Q374.91824,998.16016,374.2302,999.4252L373.57935,1000.9228L373.00287,1002.8858L370.76462,1012.3334Q368.07834,1023.8868,361.46228,1054.0088Q360.57214,1058.2793,361.25372,1059.9824L361.64603,1060.7286Q362.11792,1061.3365,362.83328,1061.479Q364.3014,1061.72,366.2952,1060.6292Q377.46878,1053.7179,384.5451,1048.419Q375.44223,1052.7507,365.1573,1058.463Q362.82376,1059.6805,362.59512,1059.2686Q363.07074,1058.5565,365.3338,1048.797L375.15793,1004.90326Q376.2522,1000.52155,376.42706,1000.44495Q376.825,999.4593,377.25357,999.1587L377.7042,999.0333Q378.16968,999.0812,378.75223,999.83795Q387.39923,1013.60046,403.65424,1030.6906"/>
</g>
<g style="fill:rgb(0,4,18); fill-opacity:1.0; stroke-linejoin: miter">
<path d="M342.7696,1029.1453L343.29248,1028.8306Q352.68414,1022.3043,375.3647,1002.1789Q377.47076,1000.4356,378.98718,999.72015Q380.8684,999.0305,381.207,999.1765Q394.09872,1000.8645,404.5257,1001.1804Q404.71378,1001.15454,402.93707,1000.92194Q398.16772,999.60596,395.09735,999.02704Q387.41318,997.6119,383.03827,996.99036Q378.71875,996.5545,376.33322,998.1582Q373.73975,999.8137,373.05743,1000.54224Q362.35455,1009.91614,358.26944,1013.67377Q349.01562,1022.21655,342.7696,1029.1453"/>
</g>
<g style="fill:rgb(0,4,18); fill-opacity:1.0; stroke-linejoin: miter">
</g>
<g style="fill:rgb(0,4,18); fill-opacity:1.0; stroke-linejoin: miter">
</g>
<g style="fill:rgb(0,4,18); fill-opacity:1.0; stroke-linejoin: miter">
<path d="M473.10718,1808.9512L473.10718,1808.9512Q473.10703,1808.9514,473.11496,1808.9514Q473.1179,1808.9515,473.12247,1808.9515L473.12753,1808.9515L473.14896,1808.9517Q473.15265,1808.9517,473.15488,1808.9517L473.1568,1808.9518L473.1582,1808.9518Q473.15933,1808.9518,473.1597,1808.9518Q473.1603,1808.9519,473.16013,1808.9521L473.16013,1808.952Q473.16016,1808.952,473.16055,1808.9519Q473.16113,1808.9519,473.16537,1808.9518Q473.1676,1808.9518,473.1713,1808.9518L473.17548,1808.9518L473.18054,1808.9518L473.18665,1808.9517Q473.19116,1808.9517,473.20193,1808.9517Q473.21207,1808.9515,473.21307,1808.9514L473.211,1808.9514L473.20523,1808.9513L473.1965,1808.9513L473.1856,1808.9513L473.17322,1808.9513L473.12372,1808.9513L473.11502,1808.9512L473.10925,1808.9512L473.10718,1808.9512"/>
</g>
</g>
</svg>