<!DOCTYPE svg PUBLIC "-//W3C//DTD SVG 1.1//EN" "http://www.w3.org/Graphics/SVG/1.1/DTD/svg11.dtd">

<!-- Uploaded to: SVG Repo, www.svgrepo.com, Transformed by: SVG Repo Mixer Tools -->
<svg fill="#ffffff" width="64px" height="64px" viewBox="0 0 32 32" version="1.1" xmlns="http://www.w3.org/2000/svg" stroke="">

<g id="SVGRepo_bgCarrier" stroke-width="0"/>

<g id="SVGRepo_tracerCarrier" stroke-linecap="round" stroke-linejoin="round"/>

<g id="SVGRepo_iconCarrier"> <title>feathered-wing</title> <path d="M1.402 1.794c6.711 4.25 12.918 7.583 20.093 8.341 2.54 0.268 2.983 2.18 1.976 4.374-1.655 3.605 1.025 8.957 7.010 12.197-0.373 1.746-2.89 3.216-4.44 2.7-1.291-2.694-3.301-5.537-5.479-4.766-4.455 1.578-9.042 1.913-12.157 0.215 4.132-0.561 8.066-1.66 11.531-3.391-6.26 0.936-13.671 0.96-16.479-2.182 5.682 0.227 10.287-0.349 15.428-1.636-6.848-0.631-14.377-1.883-16.497-6.082 5.053 1.575 11.829 2.162 16.413 2.194-7.141-1.799-16.746-6.726-17.399-11.965v0z"/> </g>

</svg>