<?xml version="1.0" encoding="utf-8"?>
<svg xmlns="http://www.w3.org/2000/svg" xmlns:xlink="http://www.w3.org/1999/xlink" version= "1.1" width="1080px" height="1080px" viewBox="0 608 1080 1080">
<g id="layer1">
<g style="fill:rgb(0,0,0); fill-opacity:1.0; stroke-linejoin: miter">
<path d="M358.0071,1408.7949L358.00714,1408.7959L358.00714,1408.795L358.0072,1408.7955L358.00723,1408.796L358.00723,1408.7953L358.00726,1408.7958L358.00726,1408.7963L358.00732,1408.7959L358.00732,1408.7954L358.00735,1408.7955L358.00742,1408.796L358.00745,1408.7965L358.00745,1408.7957L358.00735,1408.7959L358.00726,1408.7961L358.00723,1408.7964L358.0071,1408.7966L358.0071,1408.7949"/>
</g>
<g style="fill:rgb(14,23,41); fill-opacity:1.0; stroke-linejoin: miter">
<path d="M51.073227,580.9911L50.99301,580.9922Q28.007318,587.2154,12.000734,596.5799Q3.861908,601.26624,-2.8032036,606.7457L-9.0998955,612.42365Q-15.028152,618.2999,-19.482698,624.96936L-19.482313,639.49005Q-14.886093,642.3061,-11.999876,645.07513Q-11.49043,645.99286,-10.933638,647.3217Q-5.49076,660.9255,-3.9091148,677.46387Q2.4074097,671.6203,8.968418,659.02185Q16.051561,646.0537,25.752928,616.9714Q30.525438,619.94794,62.165443,593.4992Q63.456413,583.0042,51.073227,580.9911 Z"/>
</g>
<g style="fill:rgb(0,0,0); fill-opacity:1.0; stroke-linejoin: miter">
<path d="M357.98755,1408.782L357.9879,1408.7827L357.98798,1408.7837L357.98804,1408.783L357.98798,1408.7839L357.9879,1408.783L357.98785,1408.7834L357.9878,1408.7839L357.98755,1408.7849L357.98755,1408.782"/>
</g>
<g style="fill:rgb(0,0,0); fill-opacity:1.0; stroke-linejoin: miter">
<path d="M-33.57019,842.6716L-34.310936,846.3183Q-36.7191,858.0566,-38.167458,867.6402L-56.027885,1058.3376L-56.02734,1111.5424L-33.569942,1111.004L-33.57019,842.6716 Z"/>
</g>
<g style="fill:rgb(14,23,41); fill-opacity:1.0; stroke-linejoin: miter">
<path d="M-2.7743034,681.705L-3.104578,681.7311Q4.3257656,690.6139,-19.48275,778.7818L-19.48266,1110.665L-9.994507E-4,1110.1975L-0.43447113,1688.4343L428.20618,1688.559L426.4474,1805.8506L452.90442,1806.8159L721.68146,1770.8672Q784.9192,1773.9277,955.86487,1746.3755Q1064.6904,1739.7627,1119.0773,1740.4966L1174.6064,1753.3564Q1171.4332,1747.2083,1161.9678,1742.4846L1034.2792,1689.9486L1099.7919,1702.625L1073.5981,1682.5294L1063.0275,1685.698L1022.1685,1684.0037L995.34753,1671.3059Q978.0907,1676.9072,930.9719,1670.7269L845.78,1640.5217Q844.6783,1621.1006,837.5749,1623.2578L842.7946,1620.97Q843.4944,1613.1029,838.03033,1596.2041L816.7754,1631.8384L797.93256,1627.4708L752.2322,1602.9453L656.244,1615.9982L638.31024,1576.9908L626.12994,1620.4187L621.4379,1620.9666Q611.54596,1618.367,581.81433,1600.6631Q583.2539,1575.5171,578.95197,1567.3088L527.50287,1572.6115Q535.05035,1537.397,532.6833,1532.3927Q526.67395,1528.145,506.95334,1534.876L499.8256,1510.8156L487.33157,1538.3335L482.6062,1536.9907L479.6302,1529.7439L484.40268,1501.599Q463.59583,1503.6423,453.0049,1497.4984Q437.1404,1488.2793,444.393,1460.6228L421.35577,1461.7986L447.2282,1446.0325L449.06482,1441.727Q453.9956,1421.8391,441.4571,1412.9885L463.39813,1352.5L422.6986,1374.8423L403.24615,1406.9268L414.42517,1379.4236L371.618,1401.9575Q374.96912,1387.5752,372.3031,1372.9692Q367.60706,1370.0691,350.1518,1372.112L346.48926,1352.085L310.9461,1390.6582L335.6839,1334.7324L311.99802,1348.3339L314.25357,1320.5098L306.82043,1320.7357Q308.43265,1318.1991,276.17407,1282.0261L272.95154,1268.4348L280.20398,1206.2974L278.69336,1193.9163Q234.37769,1194.8237,229.60944,1188.7727Q223.02496,1188.6781,238.2995,1103.9419L160.10165,1116.7538Q145.48315,1117.3381,127.263725,1112.0801L160.47842,1086.6304L150.89743,1068.1116Q154.24908,1067.14,172.54843,1075.8828L190.01831,1053.1318Q190.57217,1050.9308,189.26248,1050.176Q168.22266,1052.1318,168.29785,1049.0752L182.97528,1006.4261Q182.19522,1004.27106,178.18329,1005.9439L141.06393,1023.24475Q96.96687,995.14954,98.33884,981.0138L136.0021,976.41766L186.50662,949.47217Q182.51807,953.5189,207.15741,882.37006Q202.02853,880.96564,159.58185,893.59753L142.1531,841.41565L132.13812,860.9529Q88.801636,858.33484,88.43802,855.23083Q88.69753,835.54004,115.15316,774.55505L82.99629,783.82874Q70.22065,821.9148,62.870377,834.3421Q60.028015,809.62836,65.061966,789.1977Q43.374516,796.5203,31.888008,795.7062L55.642097,733.57275L23.082138,744.5296L16.053513,709.89294L3.4752712,719.8738Q4.1090603,686.1816,-2.7743034,681.705 Z M362.48666,1405.9624L362.48718,1405.9626Q362.49637,1405.9695,362.5143,1405.9934Q362.185,1406.1326,361.85583,1406.272L362.48566,1405.9626L362.48618,1405.9636L362.48666,1405.9624 M523.405,1572.5848L523.42975,1572.6014L523.6026,1572.7157L523.59784,1572.7168Q523.3154,1572.7228,523.0036,1572.7274L521.82635,1572.744L521.66614,1572.7451Q521.9032,1572.7249,522.4234,1572.6786Q523.0942,1572.616,523.39984,1572.5848L523.405,1572.5859L523.405,1572.5848"/>
</g>
<g style="fill:rgb(0,0,0); fill-opacity:1.0; stroke-linejoin: miter">
<path d="M-1981.5457,-1265.2124L-1981.5457,-1265.2112L-1981.5458,-1265.2098L-1981.5457,-1265.2112L-1981.5457,-1265.2124L-1981.5457,-1265.2112L-1981.5458,-1265.2098Q-1981.5457,-1265.2112,-1981.5457,-1265.2124"/>
</g>
<g style="fill:rgb(0,0,0); fill-opacity:1.0; stroke-linejoin: miter">
<path d="M-34.847107,591.7419L-34.847095,591.7421L-34.847084,591.7424L-34.847095,591.7421L-34.847107,591.7419L-34.847095,591.7421L-34.847084,591.7424Q-34.847095,591.7421,-34.847107,591.7419"/>
</g>
<g style="fill:rgb(0,0,0); fill-opacity:1.0; stroke-linejoin: miter">
<path d="M-118.89313,490.6928L-118.89311,490.69302L-118.893105,490.69327L-118.89311,490.69302L-118.89313,490.6928L-118.89311,490.69302L-118.893105,490.69327Q-118.89311,490.69302,-118.89313,490.6928"/>
</g>
<g style="fill:rgb(0,0,0); fill-opacity:1.0; stroke-linejoin: miter">
<path d="M198.45685,83.649124L198.45682,83.64937L198.4568,83.64962L198.45682,83.64937L198.45685,83.649124L198.45682,83.64937L198.4568,83.64962Q198.45682,83.64937,198.45685,83.649124"/>
</g>
<g>
<g style="fill:rgb(255,193,7); fill-opacity:1.0; stroke-linejoin: miter">
<path d="M517.9356,678.6958L517.9355,678.69604L517.9254,678.7208L517.9255,678.7207C514.6621,686.7701,511.17725,695.45953,504.87885,701.59216L504.87885,701.59216C498.58304,707.72235,489.64252,711.13354,481.3463,714.33606L480.8286,709.6011L480.83133,709.60156L480.81735,709.5995L480.87195,709.6074L480.87268,709.60754C486.6518,710.4524,492.86755,711.3482,498.0617,713.6336L498.0617,713.6336C501.0612,714.95355,503.8142,716.7719,506.00482,719.3849L506.0047,719.3849C511.8241,726.32574,513.07465,738.38074,514.2826,749.1859L509.42474,748.94147L509.4306,748.91425L509.4306,748.91425C511.72043,738.26904,514.179,726.4013,520.8052,719.9792L520.8052,719.9792C527.5608,713.43176,538.2181,712.8737,547.4984,712.28284L547.0082,717.1196C541.7877,715.6994,536.3384,714.2223,531.5764,712.1273L531.5762,712.1271C527.6016,710.37805,523.9301,708.12646,521.1791,704.9484L521.1791,704.9483C515.2329,698.07904,514.20197,687.46783,513.20166,678.02985L517.9356,678.6958 M513.3684,676.8443C513.7931,675.7968,514.8761,675.17255,515.99536,675.33C517.1147,675.4875,517.9832,676.3862,518.1024,677.5104L518.1024,677.5104C519.1587,687.47614,520.1835,696.26825,524.9052,701.723L524.90515,701.723C526.99835,704.1411,529.94684,706.02576,533.56134,707.61646L533.56104,707.61633C537.92316,709.53546,542.9978,710.9213,548.3018,712.36426C549.46466,712.68066,550.2281,713.7916,550.10657,714.9905C549.98505,716.18945,549.0143,717.1245,547.8116,717.20105L547.8116,717.20105C537.92737,717.83044,529.42035,718.4927,524.2351,723.5181L524.2351,723.5181C518.93097,728.65875,516.67096,738.6893,514.2486,749.9507L514.2486,749.95056L514.24274,749.9778C513.9888,751.1587,512.91626,751.9813,511.7099,751.92053C510.5036,751.8599,509.51907,750.9338,509.3849,749.73346L509.3849,749.73346C508.10492,738.28375,506.86722,728.08417,502.22824,722.5511L502.22815,722.5511C500.6374,720.6535,498.5663,719.2398,496.07687,718.1445L496.0769,718.1445C491.61157,716.17975,486.10733,715.3534,480.1598,714.4839L480.16052,714.484L480.1059,714.4761L480.09195,714.474L480.08923,714.4735C478.9944,714.3135,478.13486,713.4247,478.0101,712.31177C477.88538,711.19885,478.52676,710.14185,479.5715,709.7385L479.5715,709.7385C488.1104,706.4424,496.00537,703.3537,501.44083,698.06134L501.44083,698.06134C506.86127,692.7834,510.00165,685.14874,513.3584,676.8691L513.35846,676.86884L513.3685,676.84406 Z"/>
</g>
<g style="fill:rgb(254,235,59); fill-opacity:1.0; stroke-linejoin: miter">
<path d="M514.3304,687.1851L514.27045,687.2165C511.8402,692.4943,508.93524,697.56525,504.84024,701.5525C500.60376,705.67755,495.16586,708.5711,489.52814,711.0011C489.50568,711.01074,489.49222,711.03406,489.49506,711.05835C489.4979,711.08264,489.51633,711.1022,489.5404,711.10645L489.54147,711.10657C492.51138,711.72516,495.40805,712.5264,498.03943,713.68427C501.0329,715.0015,503.7787,716.81573,505.96222,719.4214L505.9632,719.4215C509.43665,723.56506,511.28064,729.53955,512.4601,735.9928C512.46436,736.01587,512.4825,736.03345,512.5049,736.03735C512.5081,736.03796,512.5114,736.0383,512.5148,736.0382C512.54156,736.0381,512.56445,736.0189,512.5691,735.99255L512.5692,735.9917L512.5696,735.9917C514.40753,729.6618,516.87976,723.8609,520.84375,720.019C524.6572,716.3229,529.7202,714.5387,535.08356,713.5803L535.08374,713.5803C535.10974,713.57825,535.13074,713.5585,535.1343,713.5326C535.1378,713.5067,535.12286,713.48206,535.0984,713.47314C533.9021,713.03784,532.7337,712.5758,531.6031,712.0785L531.60254,712.0785L531.59845,712.0764C527.63116,710.33044,523.9715,708.08606,521.2284,704.9207L521.22534,704.9202L521.22095,704.9122C517.1781,700.24164,515.4106,693.83295,514.37836,687.2315L514.3333,687.1856 Z"/>
</g>
</g>
<g>
<g style="fill:rgb(255,193,7); fill-opacity:1.0; stroke-linejoin: miter">
<path d="M677.2081,1035.2186L677.20795,1035.2189L677.1978,1035.2418L677.1979,1035.2416C673.9168,1042.6934,670.4104,1050.7383,664.3386,1056.3098L664.3386,1056.3098C658.2694,1061.879,649.7974,1064.8273,641.93506,1067.5978L641.5814,1063.1467L641.584,1063.1473L641.5709,1063.145L641.6219,1063.1539L641.62256,1063.154C647.0141,1064.1061,652.8134,1065.1179,657.61694,1067.4033L657.61694,1067.4033C660.3907,1068.7235,662.91986,1070.5038,664.8999,1073.0128L664.8998,1073.0127C670.1601,1079.6777,670.99725,1091.0082,671.8294,1101.1664L667.28436,1100.8025L667.2905,1100.7773L667.2905,1100.7773C669.7316,1090.8661,672.3645,1079.8142,678.75146,1073.9805L678.75146,1073.9805C685.2631,1068.033,695.26465,1067.8058,703.9767,1067.5096L703.38324,1072.0281C698.531,1070.5525,693.4658,1069.0171,689.062,1066.9221L689.06177,1066.9218C685.38617,1065.1729,682.0084,1062.9609,679.5188,1059.9071L679.5188,1059.9067C674.1379,1053.3054,673.46625,1043.3344,672.79083,1034.4634L677.2081,1035.2186 M672.98,1033.357C673.407,1032.3875,674.439,1031.8326,675.48346,1032.0112C676.52783,1032.1898,677.3167,1033.0559,677.3972,1034.1127L677.3972,1034.1127C678.1104,1043.4795,678.8267,1051.7462,683.0997,1056.988L683.0996,1056.988C684.99396,1059.3119,687.7044,1061.1595,691.04694,1062.7502L691.0467,1062.7501C695.0808,1064.6694,699.7973,1066.109,704.72723,1067.608C705.8081,1067.9369,706.4925,1068.999,706.3455,1070.1191C706.19836,1071.239,705.2629,1072.0883,704.1337,1072.1266L704.1337,1072.1266C694.8547,1072.442,686.8652,1072.8265,681.8672,1077.3915L681.8672,1077.3915C676.7546,1082.0612,674.35864,1091.3972,671.77637,1101.8821L671.77637,1101.8818L671.77014,1101.9073C671.4993,1103.0068,670.4716,1103.7479,669.34283,1103.6573C668.21423,1103.5673,667.3174,1102.6721,667.22485,1101.5435L667.22485,1101.5435C666.34344,1090.7795,665.4666,1081.1882,661.2735,1075.8749L661.2734,1075.8746C659.83545,1074.0526,657.9341,1072.6703,655.6319,1071.5751L655.6319,1071.5751C651.5024,1069.61,646.36786,1068.6832,640.8192,1067.7035L640.81995,1067.7035L640.7689,1067.6946L640.75586,1067.6923L640.7535,1067.6918C639.73193,1067.5114,638.95123,1066.6548,638.86523,1065.6085C638.77924,1064.5621,639.40955,1063.5895,640.3997,1063.2406L640.3997,1063.2406C648.49207,1060.3893,655.9754,1057.7144,661.2153,1052.906L661.2153,1052.906C666.4406,1048.1112,669.59485,1041.0448,672.9699,1033.38L672.97,1033.3798L672.9801,1033.3568 Z"/>
</g>
<g style="fill:rgb(254,235,59); fill-opacity:1.0; stroke-linejoin: miter">
<path d="M673.5944,1043.0729L673.53735,1043.1006C671.11383,1047.9786,668.2512,1052.6492,664.3035,1056.2716C660.21954,1060.019,655.044,1062.5795,649.694,1064.7C649.6726,1064.7084,649.65936,1064.7299,649.66144,1064.7528C649.6634,1064.7755,649.68005,1064.7943,649.7026,1064.7991L649.7035,1064.7992C652.4691,1065.461,655.1612,1066.2925,657.59467,1067.4503C660.3629,1068.7675,662.8854,1070.5438,664.85895,1073.0458L664.85986,1073.0459C667.9997,1077.0248,669.5616,1082.6742,670.4877,1088.7535C670.491,1088.7753,670.5077,1088.7925,670.5286,1088.7966C670.5316,1088.7974,670.5346,1088.7979,670.53784,1088.7977C670.5629,1088.7983,670.5849,1088.781,670.5899,1088.7565L670.59,1088.7556L670.5904,1088.7555C672.48816,1082.8756,674.96564,1077.5085,678.7865,1074.0189C682.4622,1070.6611,687.25586,1069.1299,692.30786,1068.3809L692.30804,1068.3809C692.33246,1068.3795,692.3528,1068.3616,692.3567,1068.3375C692.3608,1068.3134,692.3475,1068.2899,692.32477,1068.2809C691.21594,1067.8397,690.1341,1067.3745,689.0884,1066.8771L689.0879,1066.877L689.0841,1066.8751C685.4151,1065.129,682.04834,1062.9243,679.56586,1059.8823L679.56305,1059.8817L679.55914,1059.874C675.90045,1055.3856,674.4222,1049.3319,673.6381,1043.1177L673.59717,1043.0734 Z"/>
</g>
</g>
<g>
<g style="fill:rgb(255,193,7); fill-opacity:1.0; stroke-linejoin: miter">
<path d="M896.0337,787.0885L896.03357,787.08875L896.0235,787.1135L896.02356,787.1134C892.7602,795.1627,889.2753,803.8522,882.9769,809.98486L882.9769,809.98486C876.6811,816.1151,867.7406,819.52625,859.4444,822.72876L858.9267,817.9938L858.9294,817.99426L858.91547,817.9922L858.97003,818.0001L858.97076,818.00024C864.7499,818.8451,870.96564,819.74084,876.1598,822.02625L876.1598,822.02625C879.15924,823.3463,881.9123,825.1647,884.1029,827.7776L884.1028,827.7776C889.9222,834.7184,891.1727,846.77344,892.3807,857.5786L887.5228,857.3341L887.5287,857.307L887.5287,857.307C889.81854,846.66174,892.2771,834.79407,898.90326,828.37195L898.90326,828.37195C905.6589,821.82446,916.31616,821.2665,925.5965,820.67554L925.10626,825.5123C919.8858,824.09216,914.43646,822.615,909.6745,820.52L909.67426,820.5198C905.6997,818.77075,902.0282,816.51917,899.27716,813.3412L899.27716,813.34094C893.331,806.4718,892.30005,795.8605,891.29974,786.4225L896.0337,787.0885 M891.4665,785.23694C891.8912,784.1896,892.9742,783.5653,894.09344,783.7228C895.21277,783.88025,896.0813,784.77893,896.2005,785.9031L896.2005,785.9031C897.2568,795.8688,898.28156,804.661,903.0033,810.1157L903.00323,810.1157C905.09644,812.5338,908.0449,814.41846,911.6594,816.00916L911.6591,816.00903C916.02124,817.9281,921.0959,819.3141,926.3999,820.75696C927.56274,821.07336,928.3262,822.1843,928.20465,823.3832C928.0831,824.58215,927.11237,825.5172,925.90967,825.59375L925.90967,825.59375C916.02545,826.22314,907.51843,826.8854,902.3332,831.91077L902.3332,831.91077C897.02905,837.0514,894.76904,847.0819,892.3467,858.3434L892.3467,858.34326L892.3408,858.3705C892.08685,859.5514,891.01434,860.374,889.808,860.31323C888.6017,860.25256,887.6171,859.32654,887.483,858.1261L887.483,858.1261C886.203,846.6764,884.9653,836.4769,880.32635,830.9437L880.32623,830.9437C878.7355,829.04626,876.66437,827.63245,874.175,826.53723L874.175,826.53723C869.70966,824.5724,864.2054,823.7461,858.2579,822.8766L858.2586,822.8767L858.204,822.8688L858.19,822.8667L858.1873,822.8662C857.09247,822.7062,856.233,821.8174,856.1082,820.70447C855.98346,819.59155,856.6248,818.53455,857.6696,818.1312L857.6696,818.1312C866.2085,814.8351,874.10345,811.74646,879.5389,806.454L879.5389,806.454C884.95935,801.17615,888.09973,793.5414,891.4565,785.26184L891.45654,785.2616L891.4666,785.2367 Z"/>
</g>
<g style="fill:rgb(254,235,59); fill-opacity:1.0; stroke-linejoin: miter">
<path d="M892.42847,795.57776L892.3685,795.60925C889.9383,800.8871,887.0333,805.9579,882.9383,809.9452C878.70184,814.0702,873.264,816.96375,867.6262,819.3938C867.60376,819.40344,867.5903,819.42676,867.59314,819.45105C867.596,819.47534,867.61444,819.4949,867.6385,819.49915L867.6396,819.49927C870.60944,820.1178,873.50616,820.91907,876.1375,822.077C879.131,823.39417,881.8768,825.2084,884.0603,827.8141L884.0613,827.8142C887.5347,831.95776,889.3787,837.93225,890.55817,844.3855C890.56244,844.40857,890.58057,844.42615,890.60297,844.43005C890.6062,844.43066,890.6095,844.431,890.61285,844.4309C890.63965,844.4308,890.66254,844.4116,890.6672,844.38525L890.6673,844.3844L890.66766,844.3844C892.5056,838.05457,894.97784,832.25354,898.94183,828.41174C902.7553,824.7156,907.8183,822.9314,913.18164,821.973L913.1818,821.973C913.2078,821.97095,913.2288,821.9512,913.23236,821.9253C913.2359,821.8994,913.22095,821.87476,913.1965,821.86584C912.0002,821.43054,910.8318,820.9685,909.7012,820.4712L909.7006,820.4712L909.69653,820.4691C905.72925,818.72314,902.0696,816.47876,899.3265,813.31335L899.3234,813.31287L899.31903,813.3048C895.2762,808.6344,893.50867,802.2257,892.47644,795.62415L892.4314,795.57825 Z"/>
</g>
</g>
<g>
<g style="fill:rgb(255,193,7); fill-opacity:1.0; stroke-linejoin: miter">
<path d="M940.9083,1343.9199L940.90826,1343.92L940.9011,1343.9371L940.9011,1343.9371C938.5904,1349.484,936.12225,1355.4725,931.7244,1359.6735L931.7244,1359.6735C927.3284,1363.8729,921.1208,1366.1738,915.3603,1368.3347L915.0334,1365.0557L915.0352,1365.056L915.0256,1365.0544L915.06335,1365.0603L915.06384,1365.0604C919.05634,1365.6829,923.3505,1366.3436,926.92883,1367.959L926.92883,1367.959C928.9951,1368.892,930.88776,1370.168,932.386,1371.9901L932.3859,1371.9901C936.366,1376.8303,937.15155,1385.1782,937.916,1392.6616L934.5568,1392.4603L934.5611,1392.4417L934.5611,1392.4417C936.21545,1385.0922,937.9947,1376.8982,942.62103,1372.4989L942.62103,1372.4989C947.3379,1368.0139,954.7143,1367.6982,961.1383,1367.3506L960.7673,1370.6934C957.1652,1369.6766,953.405,1368.6188,950.12445,1367.138L950.12427,1367.1378C947.3863,1365.9017,944.8611,1364.3197,942.97894,1362.103L942.97894,1362.1028C938.91064,1357.3115,938.26746,1349.9639,937.6377,1343.4277L940.9083,1343.9199 M937.7609,1342.6088C938.0616,1341.887,938.81494,1341.4623,939.58826,1341.5787C940.36163,1341.6951,940.9565,1342.3224,941.0315,1343.1008L941.0315,1343.1008C941.6965,1350.0022,942.3474,1356.0913,945.578,1359.8962L945.578,1359.8962C947.0101,1361.5828,949.03735,1362.9061,951.5274,1364.0304L951.5273,1364.0303C954.5323,1365.3867,958.0338,1366.3792,961.6936,1367.4122C962.49603,1367.6389,963.0168,1368.4125,962.9248,1369.241C962.83295,1370.0697,962.15515,1370.7101,961.3225,1370.755L961.3225,1370.755C954.4804,1371.1252,948.5908,1371.5273,944.9705,1374.9697L944.9705,1374.9697C941.2672,1378.4911,939.6375,1385.4155,937.88745,1393.1904L937.88745,1393.1904L937.88324,1393.2092C937.69965,1394.0244,936.9522,1394.5864,936.1181,1394.5365C935.28394,1394.4863,934.609,1393.8394,934.5241,1393.0079L934.5241,1393.0079C933.7141,1385.0785,932.9251,1378.0142,929.7524,1374.1556L929.7523,1374.1556C928.6643,1372.8324,927.2409,1371.8407,925.52594,1371.0667L925.52594,1371.0667C922.4497,1369.6779,918.6472,1369.0698,914.5383,1368.429L914.5388,1368.4291L914.50116,1368.4235L914.4915,1368.422L914.4896,1368.4215C913.7333,1368.3036,913.1445,1367.683,913.06555,1366.9122C912.98663,1366.1414,913.43726,1365.4144,914.1627,1365.1423L914.1627,1365.1423C920.09186,1362.9183,925.57404,1360.8337,929.3692,1357.2081L929.3692,1357.2081C933.1541,1353.5928,935.37695,1348.3317,937.75385,1342.626L937.75385,1342.6257L937.76105,1342.6086 Z"/>
</g>
<g style="fill:rgb(254,235,59); fill-opacity:1.0; stroke-linejoin: miter">
<path d="M938.35815,1349.7689L938.3165,1349.7903C936.60046,1353.4257,934.5573,1356.9144,931.69794,1359.6458C928.7399,1362.4716,924.95886,1364.4375,921.0425,1366.0814C921.02686,1366.0879,921.01746,1366.104,921.0192,1366.1208C921.02106,1366.1376,921.0337,1366.1512,921.0503,1366.1544L921.0511,1366.1544C923.10156,1366.6019,925.10034,1367.1754,926.9131,1367.9939C928.9752,1368.9248,930.86285,1370.198,932.35626,1372.0151L932.35693,1372.0151C934.73254,1374.9047,935.9689,1379.05,936.7422,1383.5223C936.745,1383.5383,936.7574,1383.5505,936.7729,1383.5535C936.77515,1383.554,936.7774,1383.5542,936.7797,1383.5541C936.7983,1383.5542,936.8143,1383.5411,936.8176,1383.523L936.81775,1383.5223L936.818,1383.5223C938.1312,1379.1554,939.8799,1375.1584,942.64746,1372.5267C945.3101,1369.9949,948.82446,1368.794,952.5412,1368.1663L952.5413,1368.1663C952.5593,1368.165,952.574,1368.1515,952.5766,1368.1337C952.5792,1368.1157,952.569,1368.0985,952.5521,1368.0923C951.72736,1367.7832,950.9221,1367.4559,950.14325,1367.1044L950.1429,1367.1044L950.1401,1367.103C947.40704,1365.8689,944.89,1364.292,943.01324,1362.0841L943.0111,1362.0837L943.0082,1362.0781C940.24207,1358.8203,939.0616,1354.375,938.39105,1349.8014L938.3602,1349.7693 Z"/>
</g>
</g>
<g>
<g style="fill:rgb(255,193,7); fill-opacity:1.0; stroke-linejoin: miter">
<path d="M321.57227,852.6272L321.5722,852.6273L321.5651,852.64233L321.56512,852.6422C319.26248,857.50214,316.80026,862.75006,312.6894,866.31775L312.6894,866.31775C308.58026,869.8841,302.93262,871.67566,297.6906,873.36115L297.5385,870.4159L297.54016,870.41626L297.53165,870.4144L297.5651,870.42126L297.56555,870.4214C301.10803,871.1485,304.9186,871.9227,308.0484,873.51965L308.0484,873.51965C309.85574,874.442,311.4931,875.6637,312.75464,877.35657L312.75452,877.35657C316.10574,881.85345,316.45135,889.35,316.81497,896.07245L313.8207,895.749L313.8253,895.73254L313.8253,895.73254C315.61826,889.2329,317.55878,881.98364,321.88254,878.24866L321.88254,878.24866C326.29068,874.44073,332.89835,874.4737,338.65594,874.4374L338.18146,877.41003C335.00473,876.34705,331.68854,875.24054,328.8192,873.7768L328.8191,873.7767C326.42416,872.55457,324.23444,871.0325,322.6465,868.97034L322.6465,868.9702C319.21442,864.5132,318.95334,857.91724,318.6696,852.04755L321.57227,852.6272 M318.8147,851.32056C319.11438,850.6883,319.80597,850.3408,320.49225,850.47784C321.17856,850.6148,321.6836,851.2012,321.71744,851.9003L321.71744,851.9003C322.01706,858.0981,322.3388,863.56934,325.0642,867.10864L325.06418,867.10864C326.27237,868.6777,328.02814,869.94714,330.20615,871.0587L330.20593,871.0587C332.83435,872.39954,335.9221,873.4363,339.14972,874.51624C339.85733,874.75305,340.28986,875.4669,340.1722,876.2037C340.0546,876.94055,339.42136,877.4842,338.67517,877.48883L338.67517,877.48883C332.54288,877.5274,327.26077,877.63525,323.8773,880.5578L323.8773,880.5578C320.41626,883.5477,318.66354,889.66815,316.76685,896.54395L316.76688,896.5438L316.76227,896.5604C316.56342,897.2815,315.87128,897.752,315.12766,897.6717C314.38416,897.5915,313.80838,896.9841,313.76797,896.2371L313.76797,896.2371C313.38272,889.11383,312.97925,882.76483,310.3078,879.1799L310.3077,879.1799C309.3917,877.95044,308.16153,877.0032,306.6615,876.2378L306.6615,876.2378C303.97086,874.8649,300.59766,874.1589,296.95193,873.4105L296.9524,873.41064L296.91888,873.4038L296.91034,873.402L296.9087,873.4016C296.23758,873.2639,295.7378,872.68396,295.7001,871.9915C295.66248,871.2992,296.0964,870.6685,296.7566,870.4563L296.7566,870.4563C302.15186,868.7214,307.1417,867.09204,310.68936,864.0132L310.68936,864.0132C314.2272,860.9429,316.43912,856.3348,318.80762,851.3356L318.80768,851.33545L318.81476,851.32043 Z"/>
</g>
<g style="fill:rgb(254,235,59); fill-opacity:1.0; stroke-linejoin: miter">
<path d="M319.0428,857.74695L319.00458,857.7643C317.31522,860.9407,315.33972,863.9722,312.66693,866.2919C309.90186,868.6916,306.4378,870.2874,302.8666,871.5897C302.8524,871.595,302.8432,871.6089,302.84412,871.624C302.84503,871.63904,302.85574,871.65186,302.87045,871.6553L302.8711,871.6554C304.68506,872.14307,306.4473,872.7411,308.0328,873.5503C309.83655,874.4706,311.4696,875.68945,312.727,877.37756L312.72757,877.3777C314.72778,880.0622,315.65585,883.82086,316.15613,887.85205C316.15793,887.86633,316.16855,887.8779,316.18222,887.8811C316.18423,887.8816,316.18625,887.88196,316.18832,887.8821C316.20486,887.8828,316.2197,887.8718,316.22354,887.8557L316.22363,887.8552L316.22385,887.8552C317.58444,884.0073,319.31836,880.5091,321.90494,878.27466C324.39334,876.1251,327.5863,875.2016,330.93567,874.7994L330.9358,874.7994C330.95193,874.799,330.9656,874.78754,330.9687,874.7716C330.97177,874.75574,330.96338,874.74,330.9486,874.73364C330.22455,874.4221,329.51868,874.0951,328.8374,873.74744L328.83707,873.74744L328.8346,873.7461C326.44412,872.5261,324.26144,871.00903,322.67798,868.95496L322.67612,868.95447L322.67368,868.94934C320.34018,865.919,319.47476,861.89465,319.07077,857.77734L319.04456,857.74744 Z"/>
</g>
</g>
<g>
<g style="fill:rgb(255,193,7); fill-opacity:1.0; stroke-linejoin: miter">
<path d="M600.5374,1353.1979L600.5373,1353.198L600.53217,1353.2101L600.53217,1353.21C598.8538,1357.1322,597.0607,1361.3668,593.9098,1364.3191L593.9098,1364.3191C590.76013,1367.2703,586.337,1368.8611,582.2324,1370.3555L582.0226,1368.0251L582.0239,1368.0254L582.0171,1368.0243L582.0438,1368.0287L582.0442,1368.0288C584.8746,1368.4983,587.919,1368.997,590.4486,1370.1682L590.4486,1370.1682C591.9093,1370.8448,593.2443,1371.7638,594.2957,1373.0677L594.2956,1373.0677C597.0885,1376.5312,597.58954,1382.4631,598.0813,1387.7811L595.69775,1387.6151L595.7008,1387.6019L595.7008,1387.6019C596.9255,1382.3956,598.2444,1376.5907,601.559,1373.4993L601.559,1373.4993C604.9385,1370.3475,610.1779,1370.174,614.74146,1369.9716L614.4552,1372.3423C611.90454,1371.5956,609.24207,1370.8187,606.923,1369.7448L606.92285,1369.7446C604.9872,1368.8483,603.2052,1367.7079,601.88385,1366.1212L601.88385,1366.1211C599.02795,1362.6914,598.6213,1357.4706,598.2187,1352.8263L600.5374,1353.1979 M598.31165,1352.2456C598.5301,1351.7351,599.0678,1351.4388,599.6161,1351.5269C600.1643,1351.6147,600.58246,1352.0641,600.63043,1352.6172L600.63043,1352.6172C601.05566,1357.5216,601.4764,1361.849,603.74414,1364.5721L603.74414,1364.5721C604.74945,1365.7795,606.1799,1366.7329,607.9402,1367.5482L607.94006,1367.5482C610.0644,1368.5317,612.5438,1369.2606,615.13525,1370.0192C615.7034,1370.1855,616.0679,1370.7382,615.9969,1371.3259C615.92596,1371.9136,615.44037,1372.3635,614.849,1372.3899L614.849,1372.3899C609.9886,1372.6057,605.80426,1372.8506,603.2103,1375.2694L603.2103,1375.2694C600.5571,1377.744,599.3529,1382.6487,598.0575,1388.1564L598.0575,1388.1562L598.0543,1388.1696C597.9185,1388.7472,597.384,1389.1411,596.7921,1389.1C596.2002,1389.0586,595.72534,1388.5946,595.6707,1388.0038L595.6707,1388.0038C595.1496,1382.3687,594.6375,1377.3481,592.41113,1374.5869L592.411,1374.5869C591.6476,1373.6401,590.64374,1372.9261,589.43134,1372.3647L589.43134,1372.3647C587.2567,1371.3577,584.56116,1370.8998,581.64825,1370.4167L581.6486,1370.4169L581.6219,1370.4125L581.61505,1370.4113L581.6137,1370.411C581.0776,1370.3221,580.66376,1369.8777,580.6129,1369.3298C580.5621,1368.7821,580.88696,1368.269,581.40393,1368.0808L581.40393,1368.0808C585.6286,1366.5427,589.53516,1365.1005,592.25433,1362.5525L592.25433,1362.5525C594.9662,1360.0118,596.58014,1356.2921,598.3065,1352.2578L598.3066,1352.2576L598.31177,1352.2455 Z"/>
</g>
<g style="fill:rgb(254,235,59); fill-opacity:1.0; stroke-linejoin: miter">
<path d="M598.687,1357.3329L598.6572,1357.3478C597.4141,1359.9167,595.9398,1362.3798,593.89105,1364.2992C591.7718,1366.285,589.0738,1367.6547,586.28204,1368.7949C586.27094,1368.7994,586.2641,1368.8107,586.2653,1368.8228C586.2665,1368.8346,586.2753,1368.8444,586.2871,1368.8468L586.28766,1368.8468C587.7404,1369.1786,589.1557,1369.5995,590.43713,1370.1929C591.8949,1370.868,593.22644,1371.785,594.2744,1373.0852L594.27484,1373.0853C595.94196,1375.1531,596.7915,1378.1045,597.3101,1381.2848C597.312,1381.2961,597.32074,1381.3049,597.3317,1381.3071C597.33325,1381.3074,597.33484,1381.3076,597.33655,1381.3076C597.3497,1381.3079,597.3611,1381.2986,597.36365,1381.2856L597.36365,1381.2853L597.3639,1381.2853C598.326,1378.194,599.5947,1375.3685,601.5776,1373.5192C603.4853,1371.7399,605.98865,1370.9116,608.6318,1370.4916L608.6319,1370.4916C608.6447,1370.4907,608.6552,1370.4812,608.65717,1370.4686C608.6591,1370.4559,608.65204,1370.4437,608.6401,1370.4391C608.05664,1370.214,607.4871,1369.9761,606.9365,1369.7211L606.9363,1369.7211L606.93427,1369.7201C605.0022,1368.8251,603.2259,1367.6884,601.9083,1366.108L601.90686,1366.1077L601.9048,1366.1038C599.96295,1363.7719,599.15515,1360.6079,598.71014,1357.3562L598.6884,1357.3331 Z"/>
</g>
</g>
<g>
<g style="fill:rgb(178,214,255); fill-opacity:1.0; stroke-linejoin: miter">
<path d="M544.6456,942.50946L545.0911,942.51544L545.07806,943.49554L544.63257,943.48956L544.6456,942.50946 Z M918.8965,942.0627Q919.3907,945.09894,919.45135,947.2382Q919.5095,949.5557,918.8336,953.46747Q918.4333,950.076,918.2836,947.9355Q918.141,945.26044,918.8965,942.0627 Z M876.1361,939.57367Q870.6784,949.18304,867.766,954.21234L866.60785,954.19696Q870.5284,946.69696,876.1271,939.57367 Z M751.92053,945.1232Q749.9679,946.5102,748.62396,948.0799Q747.7141,949.49347,747.4361,950.2917Q739.5107,956.60175,735.194,959.5739Q744.2976,949.6578,751.9128,945.1232 Z M598.0811,931.0179Q586.5999,943.60565,586.29236,959.9948Q585.3563,956.6855,585.3979,953.5672Q585.4964,946.17267,589.1491,939.5384Q592.70844,932.99774,598.0749,931.0179 Z M728.00055,970.8902Q726.90784,973.0894,726.37396,973.0894Q726.3723,973.0894,726.3706,973.0894Q726.0142,973.08466,726.019,972.7282Q726.0272,972.1064,727.9931,970.8902 Z M446.04257,960.1844L446.04257,960.1844Q447.78055,963.3306,449.7945,972.4323Q451.47415,980.11786,451.4599,981.1868Q451.45517,981.54315,451.00137,982.16095Q450.54764,982.7786,450.45734,982.8665Q449.1958,977.236,447.9343,971.6055Q446.33835,964.4638,446.0379,960.1844 Z M622.26416,969.5988Q623.1934,972.5284,623.1662,974.5651Q623.09143,980.1777,616.44293,984.27704Q622.3169,978.118,622.4,971.88165Q622.4152,970.7414,622.25775,969.5988 Z M862.4194,960.91315L863.93396,960.9334Q853.51404,980.5761,850.4007,986.861Q850.1615,986.81415,849.831,986.81415Q848.8107,986.81415,846.92017,987.2602Q856.31494,970.9899,862.4194,960.91315 Z M487.28125,974.4467Q487.969,976.3272,490.74033,982.33417Q492.90463,987.08563,492.89987,987.4421Q492.89517,987.7984,492.6243,988.0621Q492.35464,988.23663,492.35464,988.23663Q492.71933,987.61786,491.48157,986.8885Q490.9494,986.70306,490.59305,986.6984Q489.29825,983.56244,488.86465,982.6656Q488.96683,981.6868,488.02484,978.8228Q487.17078,976.04926,487.26935,975.3377L487.28125,974.4467 Z M734.2081,987.36176L734.2081,987.36176Q734.4807,987.36945,735.3545,987.64435Q736.1539,987.8332,736.59937,987.8392Q734.2794,988.0755,729.098,989.0756Q724.7563,989.998,724.24603,989.998Q724.1997,989.998,724.18494,989.9904L723.0268,989.9749Q723.6599,989.27057,723.9284,989.1851Q734.19403,987.37946,734.2006,987.36176 Z M805.0919,924.5628Q802.0827,924.5628,796.4535,929.55975Q791.40265,934.1258,787.9519,938.98065Q785.8625,941.9825,785.84937,942.96246Q785.83746,943.85345,787.26294,943.8724Q787.2825,943.8726,787.30225,943.8726Q788.53845,943.8726,790.30634,942.8437Q792.1023,941.7984,793.0978,940.65326Q793.2795,940.38837,795.00903,937.6491Q796.18646,935.88947,797.26,935.27814L797.26825,935.27814L797.24817,936.7879Q796.9465,939.36786,796.7422,941.3255Q795.21936,961.97784,794.09094,973.101Q794.08856,973.2791,793.89844,974.16766Q793.7096,974.9671,793.7061,975.23444L793.4365,995.4578Q793.9627,996.08856,794.76447,996.0994Q794.78827,996.0997,794.81226,996.0997Q796.6663,996.0997,799.067,994.19635Q801.4973,992.3575,801.52466,990.3084Q801.5294,989.9532,801.4467,989.5079L801.4549,989.5079Q801.90625,989.6363,802.3689,989.6363Q803.9038,989.6363,805.56226,988.2238Q805.7369,988.49335,805.8022,990.2764Q805.7891,991.2563,807.1255,991.27423Q807.1448,991.2745,807.16425,991.2745Q808.7584,991.2745,811.1582,989.5457Q813.58624,987.8852,813.97,985.8409Q814.3892,981.12384,814.4201,978.80743Q814.4296,978.09467,814.6304,976.4045Q814.8299,974.80316,814.83344,974.53595L815.28235,940.8598Q815.2955,939.8798,814.78455,938.0909Q814.27386,936.30194,813.91986,936.1191Q812.85315,935.9266,812.31976,935.8304L812.33167,934.9395Q812.6381,932.003,812.9351,929.7795Q813.1454,927.3763,812.61554,927.0129Q812.2046,926.94403,811.79395,926.94403Q808.74005,926.94403,805.7046,930.75226Q805.6261,929.9494,805.9124,928.5275Q806.1084,927.1933,806.11664,926.5699Q806.1321,925.4117,805.60834,924.6027Q805.36053,924.5628,805.0919,924.5628 Z M444.08008,916.1307Q442.58417,916.1307,440.72726,917.33307Q438.84094,918.4664,437.75284,919.8775Q436.7717,919.95355,436.325,920.0368Q434.35794,920.5451,432.46564,922.12384Q430.30374,923.87714,430.28476,925.3024Q430.2812,925.56976,431.19702,930.39374Q432.19608,935.66425,432.4408,937.36066Q437.42523,971.1982,442.66025,992.9207Q443.42163,995.9604,445.6489,995.9902Q445.68726,995.99054,445.72556,995.99054Q448.26868,995.99054,450.66882,993.7403Q453.00128,991.4692,452.6641,991.45026L452.6688,991.45026Q452.933,991.4554,453.28214,991.54755Q453.6373,991.6413,453.90457,991.64484Q453.92892,991.6451,453.95337,991.6451Q455.98578,991.6451,458.65723,989.39154Q461.27054,987.19867,461.30377,984.70416Q461.31088,984.1696,460.8714,983.7181Q460.4307,983.3559,460.4319,983.2668Q459.23334,979.5976,459.26773,977.01385Q459.29388,975.0538,463.81723,963.2631Q468.06024,952.4488,469.5225,949.706Q471.1119,957.4793,474.09586,967.5881Q475.8884,973.493,477.68088,979.39777Q478.89017,982.2653,479.67416,983.61237Q481.3633,990.58514,483.54547,994.0002Q484.0053,994.08014,484.48145,994.08014Q486.30667,994.08014,488.37173,992.9062Q490.9676,991.51886,491.97995,989.22394L491.98508,989.22394Q491.91623,994.387,491.90762,995.034L491.91132,995.034Q492.0167,995.89545,493.76706,995.91864Q493.76932,995.91864,493.77164,995.91864Q494.0441,995.91864,495.19846,995.49225Q496.2573,995.15497,496.61856,995.15497Q496.6237,995.15497,496.62863,995.15497Q496.8068,995.15717,497.15604,995.6966Q497.4174,996.14545,498.39737,996.1585Q498.41245,996.1586,498.42764,996.1586Q499.7631,996.1586,502.3387,994.60724Q505.30362,992.7756,505.33096,990.7264Q505.33688,990.28094,503.4244,986.69135Q501.6085,983.36945,501.51785,983.03937L501.52286,983.03937Q501.71426,983.03937,505.65042,973.44415Q513.0199,955.3648,519.62555,934.42377Q523.7151,921.5328,523.88824,921.5328Q523.8935,921.5328,523.89514,921.5445L523.896,921.5445Q523.896,920.58026,522.30536,920.559Q522.28455,920.55865,522.26355,920.55865Q520.9368,920.55865,518.9045,921.67206Q516.9291,922.80414,516.1118,923.9515Q515.19476,925.8997,514.91327,926.96515Q506.0958,953.4013,501.56528,965.7266Q499.15988,972.3774,498.054,975.12506Q494.7648,967.8636,491.00513,955.7841Q488.52603,947.9097,487.1528,943.97076Q483.26486,928.1473,482.89658,922.3505Q482.29434,920.7386,481.7693,920.01874Q481.5032,920.0151,481.27127,920.0151Q480.26047,920.0151,479.8972,920.0828Q478.46466,920.59845,477.6569,921.03326Q474.41284,923.75226,472.6928,925.7786Q470.81125,926.5555,469.7386,926.80853Q465.78302,929.42914,465.7545,931.5672Q465.74976,931.9235,466.36508,932.5555Q466.9816,933.0983,467.06592,933.4559Q467.65512,936.0479,467.64206,937.0278Q467.6361,937.4732,456.3123,964.767Q456.05093,964.31793,456.0533,964.1397Q450.67813,939.564,448.1693,927.23395Q446.92203,920.53424,446.43143,917.2309Q446.1784,916.15814,444.12933,916.1309Q444.10474,916.1307,444.08008,916.1307 Z M614.37354,922.06085Q607.26605,922.06085,603.44385,923.33344Q590.1065,927.87836,582.8427,938.0286Q576.30475,947.20856,576.1563,958.3448Q576.0886,963.42303,577.0389,965.66327Q577.7302,967.2764,577.98566,968.17096Q578.5974,969.07,580.0122,969.8909Q580.8971,970.3482,581.6942,970.7153Q583.28357,971.8057,583.90717,971.814Q583.911,971.814,583.9149,971.814Q584.3703,971.814,586.4112,971.1347Q589.0067,970.27814,589.63153,970.1973Q591.9562,969.60455,594.66925,966.61115Q597.38116,963.7067,597.67456,961.7503Q600.6029,960.4661,601.5926,960.4661Q601.6026,960.4661,601.6123,960.46625Q601.9686,960.4711,602.2288,961.0091Q602.4902,961.4582,602.66833,961.46063Q604.62476,961.75397,605.60236,961.94525Q608.6908,964.21405,610.94305,969.0557Q613.1965,973.8084,613.1513,977.1938Q613.11334,980.0446,610.4929,982.77216Q607.9616,985.50055,604.5607,986.6137Q603.34314,984.3698,602.0365,982.1247Q600.64545,979.52203,600.6811,976.8494Q600.68585,976.493,601.59576,975.0794Q602.41534,973.75385,602.4201,973.3974Q602.4344,972.3283,600.6526,972.3046Q600.6106,972.304,600.5685,972.304Q596.141,972.304,590.1447,978.491Q584.1805,984.7381,584.1092,990.08356Q584.07117,992.9344,585.48474,993.8443Q588.9462,994.87054,590.8171,994.89545Q591.7876,995.6213,592.2271,996.0727Q594.0006,996.72003,596.31696,996.7509Q596.39935,996.752,596.4829,996.752Q601.1857,996.752,609.4619,993.27277Q618.6928,989.29694,624.82697,983.67596Q632.3128,976.9146,632.4066,969.8765Q632.5515,959.0075,621.4794,954.04816Q618.644,952.8521,611.784,952.76056Q611.6672,952.759,611.54913,952.759Q607.79486,952.759,602.7633,954.3333Q597.57477,955.8681,595.76917,957.62616L595.32965,957.17487Q596.03046,944.7093,601.4103,935.514Q604.39386,930.60187,607.2241,930.60187Q607.24585,930.60187,607.26764,930.6021Q607.624,930.6069,609.04,931.33856Q610.45703,931.98126,610.7243,931.9847Q611.315,931.9926,611.7493,931.9926Q612.79675,931.9926,612.93494,931.9467L612.9413,931.9467Q611.7647,934.1536,611.7198,937.52264Q611.65686,942.24445,616.6459,942.31085Q616.6854,942.3112,616.7262,942.3112Q618.0641,942.3112,620.7524,941.7419Q622.8965,941.3249,626.2403,937.80524Q629.5841,934.2856,629.6102,932.3256Q629.63165,930.722,624.2839,924.14594Q623.9286,924.0522,623.12683,924.04144Q623.11743,924.0412,623.10803,924.0412Q622.761,924.0412,622.41174,924.21Q622.069,924.29095,621.80914,924.29095Q621.798,924.29095,621.7869,924.29083Q621.43054,924.2862,621.08606,923.39044Q620.7404,922.5839,620.47437,922.4913Q619.4991,922.12177,615.49005,922.0684Q614.922,922.06085,614.37354,922.06085 Z M544.8026,921.1264Q543.2054,921.1264,540.5415,922.8515Q537.5754,924.7723,537.37585,926.3735Q535.6428,949.4289,534.9444,961.71625Q534.7223,965.0101,534.6356,971.51373Q534.49786,981.8482,535.131,987.8267Q535.59784,992.9119,536.5493,995.0632Q537.06604,996.4068,538.937,996.4316Q538.9715,996.43207,539.006,996.43207Q541.64575,996.43207,544.40826,993.74225Q547.11664,991.10516,547.51215,988.17Q547.51215,988.17,547.9814,993.0771Q548.29974,995.9327,549.0826,997.36884Q549.4075,997.4323,549.7627,997.4323Q551.5455,997.4323,554.09296,995.8317Q557.05786,993.99994,557.4392,992.13385Q558.47504,987.95966,558.18396,983.0549Q557.2122,982.4183,556.6801,982.23285Q556.2453,974.74225,556.2596,973.67316L556.693,941.15533L558.46405,921.93207Q558.0269,921.30255,556.9578,921.28827Q556.94196,921.28815,556.92596,921.28815Q555.4113,921.28815,552.38806,923.1877Q549.0633,925.2818,548.7723,927.0601Q546.5914,936.9217,545.1838,942.24945L545.2158,939.84393Q546.4262,922.57355,546.349,921.68146Q545.91064,921.1409,544.84155,921.1268Q544.82214,921.1264,544.8026,921.1264 Z M960.2574,926.5817Q949.01166,926.5817,930.37604,929.83Q927.2606,930.33246,927.2013,930.4013L927.2013,930.4013Q926.92365,930.2872,926.2885,928.97345Q925.68274,927.62897,924.4355,927.61224Q924.40063,927.61176,924.3657,927.61176Q922.8006,927.61176,921.3933,928.5518Q920.044,929.5141,918.69336,930.56537Q918.3631,928.60065,918.0993,928.3299Q917.92474,928.0601,916.8557,928.04584Q916.8386,928.0457,916.8214,928.0457Q915.39813,928.0457,912.73615,929.5949Q909.681,931.51447,909.65485,933.4744L909.484,966.35223Q909.54456,968.4915,909.6289,968.8492Q909.9698,970.01215,911.4844,970.0323Q911.5177,970.03265,911.5511,970.03265Q913.9236,970.03265,916.3261,967.77997Q918.76117,965.5849,918.52484,963.26495Q921.0252,962.8527,923.629,961.3726Q925.7244,960.18756,928.22534,960.18756Q928.29626,960.18756,928.3675,960.1884Q931.48553,960.2299,934.1857,964.8995Q936.53766,968.9406,936.5009,971.70233Q936.44617,975.8005,934.15607,980.4926Q931.6841,985.4495,927.9946,988.16266Q925.1317,990.163,924.32306,990.163Q924.3188,990.163,924.3145,990.163Q922.6219,990.14044,922.1657,984.25336Q921.90436,983.8044,921.72736,983.71295Q921.14215,983.6806,920.59155,983.6806Q917.1213,983.6806,915.02783,984.96027Q913.1414,986.0933,910.34174,988.90753Q906.6391,992.60065,906.61053,994.7387Q906.57025,997.76776,912.0939,997.8415Q912.1017,997.8416,912.11316,997.8416Q912.4959,997.8416,916.99615,997.7286Q921.04553,997.70306,921.6991,997.70306Q921.7791,997.70306,921.8082,997.70355Q921.8694,997.7043,921.93097,997.7043Q926.5381,997.7043,933.80927,993.1409Q941.53625,988.3432,946.7914,981.8193Q952.95044,974.32745,953.0395,967.6457Q953.1476,959.5385,943.71356,952.017Q942.743,951.2912,939.36584,950.6224Q936.433,950.04865,934.7403,950.0262Q934.5404,950.0235,934.34424,950.0235Q930.2559,950.0235,927.7747,951.1807Q927.7747,951.1807,927.6832,951.3577Q927.5975,951.4412,927.2721,951.4412Q927.2547,951.4412,927.23663,951.441Q926.9756,951.43744,926.97736,950.8427L926.97845,950.8427Q926.9919,950.8427,927.20447,947.1634Q927.43134,943.513,927.3637,941.90826Q931.83,941.0767,936.3855,940.2465Q941.5881,939.3947,945.75665,939.3947Q946.0242,939.3947,946.2876,939.39825Q950.0293,939.44806,953.7628,940.12164Q953.94104,940.12396,954.5611,940.3995Q955.09326,940.5849,955.3605,940.5883Q955.3816,940.5887,955.40283,940.5887Q957.2639,940.5887,960.11194,938.424Q962.9925,936.2348,962.4818,934.446Q961.77856,933.7238,960.08813,933.523Q958.93243,933.3293,957.77545,933.2249L957.7777,933.0467L960.8068,933.087Q961.1632,933.09186,961.8724,933.3686Q962.5815,933.6453,962.8489,933.64886Q962.8707,933.64923,962.8927,933.64923Q964.7533,933.64923,967.59906,931.57367Q970.4785,929.47345,970.0556,927.77484Q969.1766,926.872,968.19775,926.76996Q966.9517,926.6641,961.2499,926.5882Q960.76105,926.5817,960.2574,926.5817 Z M756.2889,923.94855Q747.68665,923.94855,738.0222,927.8897Q726.73395,932.462,720.21606,940.1274Q719.5818,940.9207,719.5533,943.059Q720.34436,943.8715,721.85895,943.89166Q721.89514,943.892,721.93146,943.892Q724.3064,943.892,727.0546,941.8223Q729.8438,939.8101,729.428,937.57684Q731.0602,935.46014,738.66724,932.97736Q745.9926,930.5572,750.8323,930.5572Q750.9596,930.5572,751.08514,930.5589Q758.3015,930.6551,760.189,936.1158Q758.21484,937.1586,756.1551,937.93317Q747.28754,941.3792,735.55505,952.53925Q726.0783,961.5909,716.8309,973.4969Q712.7541,978.52167,710.76086,980.9899Q708.39813,984.43353,708.5491,986.48505Q709.3402,987.29767,710.9438,987.31903Q710.96985,987.3193,710.99615,987.3193Q713.3067,987.3193,717.5664,984.64935L717.5737,984.64935Q717.72955,986.16254,716.56714,986.592Q709.048,989.16486,709.0028,992.55035Q708.98737,993.70844,710.59094,993.7298Q710.5976,993.73004,710.60443,993.73004Q710.964,993.73004,711.84186,993.4792Q712.6359,993.22626,712.9069,993.22626Q712.91077,993.22626,712.9145,993.22626Q713.2709,993.2309,714.3316,993.86884Q713.15326,995.368,712.7755,996.96686Q714.10004,997.87555,715.2582,997.8909Q715.27094,997.89105,715.2841,997.89105Q716.38245,997.89105,720.97656,996.71967Q726.6082,995.3691,728.21655,995.0341Q744.14056,992.27277,754.51953,992.27277Q755.02625,992.27277,755.5198,992.27936Q755.87604,992.284,759.25793,992.5965Q762.5508,992.90765,762.90704,992.9124Q762.93134,992.91266,762.9557,992.91266Q764.9914,992.91266,767.927,990.66254Q770.8087,988.3842,770.21246,986.3267Q767.01904,985.7751,765.1248,985.7751Q764.6988,985.7751,764.3384,985.80304Q764.8001,984.5628,764.88947,984.5628Q764.8895,984.5628,764.8896,984.5628Q766.23425,983.9571,766.95056,983.6993Q768.29645,983.00446,769.65533,981.3294Q770.9239,979.7424,770.84796,978.7613Q767.74994,977.20526,759.4765,976.2039Q752.8934,975.40326,747.4588,975.3309Q746.1391,975.3133,745.031,975.3133Q741.42633,975.3133,740.0607,975.4996Q736.313,975.8951,729.60394,977.85516Q729.54553,977.88324,729.4969,977.88324Q729.39636,977.88324,729.3379,977.7625Q735.51355,969.0234,742.7346,962.08014Q751.5794,953.64386,758.6519,951.154Q759.59375,950.9958,760.12384,950.9958Q760.1467,950.9958,760.1689,950.99615Q761.6881,950.66,763.6671,949.2607Q765.64606,947.86127,766.3779,946.44525Q769.58154,940.07245,769.63617,935.9743Q769.6813,932.5888,767.7712,928.821Q765.33954,924.06586,756.78687,923.95197Q756.5383,923.94855,756.2889,923.94855 Z M845.38116,925.31134Q843.61237,925.31134,841.0401,927.03534Q838.17285,929.03864,838.1347,931.07965L838.1434,931.07965Q838.2175,931.1031,838.9149,932.7098Q837.3898,933.4914,835.85266,935.1639Q834.3167,936.7474,834.4795,937.9079Q835.45233,938.4554,837.50146,938.48285Q837.6162,938.4843,837.7317,938.4843Q839.769,938.4843,842.0521,938.0087Q845.3468,937.16534,845.62537,937.16534Q845.6266,937.16534,845.6277,937.16534Q858.3125,935.3089,866.3359,935.3089Q866.7831,935.3089,867.21594,935.31464Q871.93774,935.3775,873.00446,935.57Q869.5751,938.8212,866.4831,943.5026Q863.93506,947.47845,861.29803,951.45306Q860.74927,952.51495,860.20044,953.57697Q859.37964,954.99164,858.6645,955.16034Q851.6027,956.8483,848.11633,957.69293Q846.68604,958.03033,844.3424,960.0485Q841.8171,962.3317,841.7992,963.6679Q841.785,964.737,843.47766,964.7596Q843.50464,964.7598,843.5321,964.7598Q845.3218,964.7598,849.379,963.2343Q851.4375,962.549,853.58636,961.7757L854.9228,961.7935Q838.1466,990.35114,835.8647,994.4195Q835.4087,995.2154,835.47156,997.1766Q836.53,997.9926,837.50995,998.0058Q837.5505,998.0064,837.5912,998.0064Q842.55853,998.0064,849.8245,989.9721Q850.3519,990.51373,851.2429,990.5257Q851.25946,990.5258,851.2761,990.5258Q852.96545,990.5258,855.99554,988.2723Q856.1713,988.4527,856.0799,988.6298Q855.6178,989.87115,853.9643,993.5915Q852.67664,996.60394,852.67303,996.8713Q852.6553,998.2076,854.16986,998.2277Q854.2122,998.22833,854.2546,998.22833Q860.3488,998.22833,864.9295,986.5202Q868.62604,976.58954,870.4732,971.7133Q873.6828,964.89496,875.32794,961.79803Q875.85895,962.0726,876.57166,962.0821Q876.59265,962.08234,876.61383,962.08234Q878.4759,962.08234,881.41223,959.919Q884.2916,957.8188,883.959,956.0323Q880.68164,954.5628,879.1743,954.0081Q884.01715,944.9838,888.11523,938.3555Q889.75574,935.6152,890.74994,934.55914Q892.19556,933.0634,893.64246,931.47894Q895.63086,929.3669,895.6428,928.4759Q895.6558,927.49603,894.14124,927.4759Q894.1103,927.4754,894.0794,927.4754Q892.2377,927.4754,890.2903,928.9393Q888.31006,930.4277,888.31006,930.4277Q887.33014,930.4146,886.89655,929.51776Q887.79694,928.81696,887.9109,926.9472Q887.5108,926.37103,885.535,926.37103Q885.35236,926.37103,885.15625,926.3759Q881.99457,926.41925,881.9463,926.42206L881.9463,926.42206Q875.45123,925.712,864.94,925.5717Q859.1534,925.49457,856.3876,925.49457Q854.8525,925.49457,854.2479,925.5184Q854.2173,925.5179,854.18494,925.5179Q853.1815,925.5179,850.5002,925.914Q847.8441,926.32025,847.55896,926.32025Q847.5566,926.32025,847.55426,926.32025Q847.287,926.3166,846.4924,925.7713Q845.6965,925.31537,845.4292,925.3117Q845.4053,925.31134,845.38116,925.31134 Z M683.64716,989.4505Q682.2753,989.4505,673.931,989.85516Q663.4992,990.3398,658.14545,990.89215Q649.3065,992.1999,644.9316,992.85455Q641.8966,993.2596,641.53906,993.34406Q640.5544,993.6873,639.29285,994.7397Q637.67255,995.9655,637.6583,997.0346Q637.6488,997.7474,639.1633,997.7675Q639.7431,997.7752,640.16113,997.7752Q640.8719,997.7752,641.1148,997.75287L641.12146,997.75287Q637.4476,999.6412,637.59656,1001.6673Q638.21545,1002.03204,639.1954,1002.0451Q639.3234,1002.0468,639.43787,1002.0468Q640.1989,1002.0468,640.35474,1001.9715Q642.0558,1001.3704,642.8636,1000.9356Q645.547,1000.1695,651.2594,999.44354Q656.6202,998.75055,659.29944,998.75055Q659.43066,998.75055,659.5555,998.75214L685.56976,999.09894Q685.748,999.1014,691.3559,999.53253Q696.9638,999.9637,697.14197,999.9661Q697.2966,999.9682,697.44525,999.9682Q699.5241,999.9682,700.4443,999.56464Q701.34106,999.13116,703.2393,997.107Q703.69073,996.66754,703.7026,995.77655Q703.43884,995.5057,703.34973,995.5046Q692.31213,994.6445,690.44244,994.5306Q676.9007,994.3499,676.8128,994.2597Q678.976,994.1285,680.2025,994.1285Q680.3412,994.1285,680.4679,994.13007L695.43616,994.24054Q695.4426,994.2408,695.44916,994.2408Q696.25397,994.2408,698.2158,992.941Q700.19366,991.6308,700.21027,990.3836Q700.215,990.02716,699.8634,989.6661L683.73804,989.4511Q683.69727,989.4505,683.64716,989.4505 Z"/>
</g>
</g>
</g>
</svg>