<?xml version="1.0" encoding="utf-8"?>
<svg xmlns="http://www.w3.org/2000/svg" xmlns:xlink="http://www.w3.org/1999/xlink" version= "1.1" width="1080px" height="728px" viewBox="0 805 1080 728">
<g id="layer1">
<g style="fill:rgb(229,231,230); fill-opacity:0.6392157; stroke-linejoin: miter">
<path d="M647.0996,1011.8155L654.7539,1012.37213L662.3494,1014.0041Q669.9157,1016.17413,677.1172,1020.269Q691.64404,1028.5725,703.2275,1043.2236Q714.8109,1057.8748,721.47186,1077.0688L724.7096,1088.3503Q727.3455,1099.693,727.6727,1110.743Q728.4613,1144.9695,710.1965,1166.8691L703.69104,1173.1986L696.22327,1178.3049L687.8171,1182.0533Q675.265,1186.0814,663.7389,1184.2174L656.1432,1182.5852Q648.5769,1180.4155,641.3752,1176.3201Q626.84845,1168.0168,615.26483,1153.3657Q609.5349,1146.0966,604.912,1137.5789L600.6276,1128.8053Q596.83563,1120.519,593.7829,1108.2391L591.72394,1096.9695Q587.5076,1062.1019,602.7771,1037.1381Q619.60004,1012.0924,647.0996,1011.8155 M433.9146,1053.036L434.54236,1053.0398L445.3125,1054.3083Q453.9347,1056.2975,461.43787,1060.9596L468.60086,1066.1763Q475.4542,1072.0054,480.82642,1079.8281Q497.4256,1104.2008,496.35797,1138.3899Q494.1892,1171.6943,476.05658,1194.1688Q457.92395,1216.6436,430.97702,1217.5392Q431.68506,1218.0558,419.6102,1216.2754Q410.9833,1214.2896,403.476,1209.6296L396.30878,1204.4138Q389.4518,1198.5863,384.076,1190.7621Q367.4664,1166.3851,368.53394,1132.1853Q370.7028,1098.881,388.8353,1076.4064Q406.9678,1053.9315,433.9146,1053.036 M544.7291,909.69684L513.12445,911.8231Q417.61237,926.9387,360.34787,1000.28265Q303.12946,1074.1339,313.94418,1174.2125Q329.0601,1269.724,402.40393,1326.989Q476.25525,1384.2076,576.3337,1373.3931Q671.8451,1358.2767,729.1101,1284.9331Q786.32886,1211.0818,775.5141,1111.0033Q760.39777,1015.4911,687.05396,958.22687Q663.34607,939.8785,635.3884,928.0002L606.646,918.01666Q576.9798,909.7894,544.7291,909.69684 Z"/>
</g>
</g>
<g id="layer2">
<g style="fill:rgb(0,5,19); fill-opacity:1.0; stroke-linejoin: miter">
<path d="M783.9893,1142.6079L783.9893,1142.6079C783.9893,1274.7476,676.8687,1381.8682,544.7291,1381.8682L544.7291,1381.8682C412.58923,1381.8682,305.46887,1274.7479,305.46887,1142.6079L305.46887,1142.6079C305.46887,1010.46826,412.58923,903.3478,544.7291,903.3478L544.7291,903.3478C676.8687,903.3478,783.9893,1010.46826,783.9893,1142.6079L783.9893,1142.6079 M776.9893,1142.6079L776.9893,1142.6079C776.9893,1014.3343,673.0027,910.3478,544.7291,910.3478L544.7291,910.3478C416.4552,910.3478,312.46887,1014.3343,312.46887,1142.6079L312.46887,1142.6079C312.46887,1270.882,416.4552,1374.8682,544.7291,1374.8682L544.7291,1374.8682C673.0027,1374.8682,776.9893,1270.8817,776.9893,1142.6079 Z"/>
</g>
<g style="fill:rgb(0,0,0); fill-opacity:1.0; stroke-linejoin: miter">
<path d="M497.00818,1138.4214L497.00818,1138.4214C494.85175,1182.8488,465.24124,1219.915,428.42502,1218.1282L428.42496,1218.1282C391.6088,1216.3411,365.72726,1176.5815,367.88373,1132.1538L367.88373,1132.1538C370.04016,1087.7263,399.65073,1050.6599,436.46692,1052.447L436.46686,1052.447C473.2832,1054.2339,499.16464,1093.9937,497.00818,1138.4214L497.00818,1138.4214 M487.01996,1137.9365L487.01996,1137.9365C489.0372,1096.3773,464.96307,1063.8418,435.98212,1062.4353L435.98206,1062.4353C407.00122,1061.0286,379.88916,1091.0796,377.87195,1132.6387L377.87195,1132.6387C375.8547,1174.1978,399.9289,1206.7332,428.90982,1208.1399L428.90976,1208.1399C457.89078,1209.5464,485.00278,1179.4955,487.01996,1137.9365 Z"/>
</g>
<g style="fill:rgb(0,0,0); fill-opacity:1.0; stroke-linejoin: miter">
<path d="M722.08795,1076.8588L722.08795,1076.8588C737.47675,1121.9723,724.00507,1170.3972,688.0272,1182.6696L688.0272,1182.6696C652.0498,1194.9417,611.79297,1164.8441,596.40436,1119.7307L596.40436,1119.7307C581.01556,1074.6168,594.4876,1026.1923,630.46515,1013.9201L630.46515,1013.9201C666.44275,1001.64777,706.6992,1031.7449,722.08795,1076.8588L722.08795,1076.8588 M712.6235,1080.0873L712.6235,1080.0873C698.0045,1037.2301,661.902,1013.7624,633.69354,1023.3846L633.69354,1023.3846C605.4851,1033.0067,591.24994,1073.6454,605.86884,1116.5022L605.86884,1116.5022C620.48773,1159.3591,656.59045,1182.827,684.7988,1173.205L684.7988,1173.205C713.0072,1163.5828,727.2425,1122.9441,712.6235,1080.0873 Z"/>
</g>
<g style="fill:rgb(0,0,0); fill-opacity:1.0; stroke-linejoin: miter">
<path d="M639.82855,724.3396L639.82855,724.3396L639.82855,724.3396L639.82855,724.3396L639.82855,724.3396L639.82855,724.3396L639.82855,724.3396L639.82855,724.3396L639.82855,724.3396L639.82855,724.3396 M639.82855,734.3396L639.82855,734.3396L639.82855,734.3396L639.82855,734.3396L639.82855,734.3396L639.82855,734.3396L639.82855,734.3396L639.82855,734.3396L639.82855,734.3396 Z"/>
</g>
<g style="fill:rgb(0,0,0); fill-opacity:1.0; stroke-linejoin: miter">
<path d="M310.94254,745.85925L310.94254,745.85925L310.94254,745.85925L310.94254,745.85925L310.94254,745.85925L310.94254,745.85925L310.94254,745.85925L310.94254,745.85925L310.94254,745.85925L310.94254,745.85925 M310.94254,755.85925L310.94254,755.85925L310.94254,755.85925L310.94254,755.85925L310.94254,755.85925L310.94254,755.85925L310.94254,755.85925L310.94254,755.85925L310.94254,755.85925 Z"/>
</g>
<g style="fill:rgb(0,0,0); fill-opacity:1.0; stroke-linejoin: miter">
<path d="M333.84424,652.4628L333.84424,652.4628L333.84424,652.4628L333.84424,652.4628L333.84424,652.4628L333.84424,652.4628L333.84424,652.4628L333.84424,652.4628L333.84424,652.4628L333.84424,652.4628 M333.84424,662.4628L333.84424,662.4628L333.84424,662.4628L333.84424,662.4628L333.84424,662.4628L333.84424,662.4628L333.84424,662.4628L333.84424,662.4628L333.84424,662.4628 Z"/>
</g>
<g style="fill:rgb(0,0,0); fill-opacity:1.0; stroke-linejoin: miter">
<path d="M213.70865,461.18704L213.70865,461.18704L213.70865,461.18704L213.70865,461.18704L213.70865,461.18704L213.70865,461.18704L213.70865,461.18704L213.70865,461.18704L213.70865,461.18704L213.70865,461.18704 M213.70865,471.18704L213.70865,471.18704L213.70865,471.18704L213.70865,471.18704L213.70865,471.18704L213.70865,471.18704L213.70865,471.18704L213.70865,471.18704L213.70865,471.18704 Z"/>
</g>
<g style="fill:rgb(0,0,0); fill-opacity:1.0; stroke-linejoin: miter">
<path d="M213.70865,461.18704L213.70865,461.18704L213.70865,461.18704L213.70865,461.18704L213.70865,461.18704L213.70865,461.18704L213.70865,461.18704L213.70865,461.18704L213.70865,461.18704L213.70865,461.18704 M213.70865,471.18704L213.70865,471.18704L213.70865,471.18704L213.70865,471.18704L213.70865,471.18704L213.70865,471.18704L213.70865,471.18704L213.70865,471.18704L213.70865,471.18704 Z"/>
</g>
<g style="fill:rgb(201,202,202); fill-opacity:0.38039216; stroke-linejoin: miter">
<path d="M242.04602,984.45593L242.04602,984.45593L242.04602,984.45593L242.04602,984.45593L242.04602,984.45593L242.04602,984.45593L242.04602,984.45593L242.04602,984.45593L242.04602,984.45593L242.04602,984.45593 M242.04602,994.45593L242.04602,994.45593L242.04602,994.45593L242.04602,994.45593L242.04602,994.45593L242.04602,994.45593L242.04602,994.45593L242.04602,994.45593L242.04602,994.45593 Z"/>
</g>
<g style="fill:rgb(201,202,202); fill-opacity:0.38039216; stroke-linejoin: miter">
<path d="M354.9131,1202.2861L354.9131,1202.2861L354.9131,1202.2861L354.9131,1202.2861L354.9131,1202.2861L354.9131,1202.2861L354.9131,1202.2861L354.9131,1202.2861L354.9131,1202.2861L354.9131,1202.2861 M354.9131,1212.2861L354.9131,1212.2861L354.9131,1212.2861L354.9131,1212.2861L354.9131,1212.2861L354.9131,1212.2861L354.9131,1212.2861L354.9131,1212.2861L354.9131,1212.2861 Z"/>
</g>
</g>
<g id="layer3">
<g style="fill:rgb(0,4,18); fill-opacity:1.0; stroke-linejoin: miter">
<path d="M834.87976,891.49677L834.87976,891.49774L834.87976,891.4987L834.87976,891.4997L834.87976,891.5007L834.87976,891.50165L834.87976,891.5026L834.87976,891.5036L875.7266,888.2189L845.88666,904.4857L916.12683,928.18524L862.9148,940.58545L898.301,893.066L876.8969,970.34314L965.8336,962.90375L894.1622,1007.1497L927.63696,1003.84503L898.735,1016.91956L962.6293,1053.0509L924.44586,1071.851L958.90826,1007.08966L936.0989,1096.7476L1037.4337,1102.4131L958.316,1144.2144L1026.375,1142.75L966.3861,1161.4562L1013.41437,1188.3384L965.01245,1190.0068L965.01245,1190.0078L996.55066,1278.896L934.96124,1237.9957L1004.25397,1233.5593L919.9746,1264.3192L943.09845,1289.084L986.97705,1276.4062L957.23047,1307.4393L965.97327,1317.5583L895.66125,1307.0249L913.7226,1419.8984L870.97064,1350.3931L936.74695,1321.4092L848.0872,1390.587L889.91266,1408.2941L824.9972,1422.1943L829.6989,1481.5027L812.23535,1441.1511L839.5844,1448.2421L794.0671,1455.8163L813.84753,1478.8798L763.174,1473.5491L772.08124,1510.4197L746.7019,1484.873L729.23706,1502.0842L730.13416,1477.2097C708.6846,1473.7128,708.787,1470.8723,708.787,1470.8723L730.5791,1464.8712C742.7246,1438.4235,749.9529,1431.558,754.7908,1423.4648L754.7908,1423.4658L912.94995,1158.8853L911.5763,1187.4359C770.14764,895.0971,758.1451,870.51526,758.1451,870.51526L739.1897,856.721L760.22516,861.4451L766.8908,832.37976L781.13635,866.6107L787.71826,822.6577L805.00256,871.5685L808.03864,873.12714L807.5033,839.8225L818.4872,869.03394L842.69183,836.7159L834.87976,891.49677L834.87976,891.49774L834.87976,891.49677L834.87976,891.49774L834.87976,891.49677L834.87976,891.49774L834.87976,891.49677 Z"/>
</g>
<g style="fill:rgb(0,4,18); fill-opacity:1.0; stroke-linejoin: miter">
<path d="M245.12024,891.49677L245.12024,891.49774L245.12024,891.4987L245.12024,891.4997L245.12024,891.5007L245.12024,891.50165L245.12024,891.5026L245.12024,891.5036L204.27338,888.2189L234.11334,904.4857L163.87317,928.18524L217.0852,940.58545L181.69897,893.066L203.10309,970.34314L114.16638,962.90375L185.83783,1007.1497L152.36304,1003.84503L181.26501,1016.91956L117.37073,1053.0509L155.55414,1071.851L121.091736,1007.08966L143.90112,1096.7476L42.566284,1102.4131L121.68402,1144.2144L53.625,1142.75L113.61389,1161.4562L66.58563,1188.3384L114.98755,1190.0068L114.98755,1190.0078L83.44934,1278.896L145.03876,1237.9957L75.74603,1233.5593L160.02539,1264.3192L136.90155,1289.084L93.02295,1276.4062L122.76953,1307.4393L114.02673,1317.5583L184.33875,1307.0249L166.2774,1419.8984L209.02936,1350.3931L143.25305,1321.4092L231.91278,1390.587L190.08734,1408.2941L255.0028,1422.1943L250.30109,1481.5027L267.76465,1441.1511L240.41559,1448.2421L285.93292,1455.8163L266.15247,1478.8798L316.826,1473.5491L307.91876,1510.4197L333.2981,1484.873L350.76294,1502.0842L349.86584,1477.2097C371.31543,1473.7128,371.213,1470.8723,371.213,1470.8723L349.4209,1464.8712C337.2754,1438.4235,330.04712,1431.558,325.20923,1423.4648L325.20923,1423.4658L167.05005,1158.8853L168.4237,1187.4359C309.85236,895.0971,321.85492,870.51526,321.85492,870.51526L340.8103,856.721L319.77484,861.4451L313.1092,832.37976L298.86365,866.6107L292.28174,822.6577L274.99744,871.5685L271.96136,873.12714L272.4967,839.8225L261.51282,869.03394L237.30817,836.7159L245.12024,891.49677L245.12024,891.49774L245.12024,891.49677L245.12024,891.49774L245.12024,891.49677L245.12024,891.49774L245.12024,891.49677 Z"/>
</g>
<g style="fill:rgb(0,4,18); fill-opacity:1.0; stroke-linejoin: miter">
<path d="M438.64972,1274.6992L439.38232,1275.6793Q450.79883,1289.061,467.50513,1305.671Q477.02612,1315.4374,493.0025,1329.573L488.7745,1325.2346Q477.1607,1311.6108,472.1663,1306.5327Q462.67297,1296.9059,453.78693,1288.4044Q453.22702,1287.6973,438.64972,1274.6992"/>
</g>
<g style="fill:rgb(0,4,18); fill-opacity:1.0; stroke-linejoin: miter">
<path d="M428.78772,1302.95L429.60843,1302.8536Q440.4021,1300.8722,458.19492,1295.8188Q468.0967,1292.9359,478.7444,1288.6233L477.95175,1288.8104L474.81274,1289.6995Q462.8973,1291.7266,458.28354,1293.0237Q449.5507,1295.5743,441.70563,1298.2256Q431.22244,1301.9427,429.92972,1302.598L428.78772,1302.95"/>
</g>
<g style="fill:rgb(0,4,18); fill-opacity:1.0; stroke-linejoin: miter">
<path d="M580.3427,933.183L581.1433,933.6087Q592.1202,938.5698,611.3312,945.16516Q622.0577,948.79785,634.31396,951.7341L630.0969,950.2326Q618.0563,944.6811,613.0874,942.94666Q603.6303,939.726,594.91833,937.127Q583.16174,933.826,581.5912,933.587L580.3427,933.183"/>
</g>
<g style="fill:rgb(0,4,18); fill-opacity:1.0; stroke-linejoin: miter">
<path d="M556.6419,943.8215L557.5146,944.3658Q570.54663,951.32007,588.7223,959.10236Q594.6152,961.6688,600.7992,964.05756Q615.9018,969.6737,616.1281,969.57837L611.4822,967.51306Q598.26337,960.3334,592.78766,957.93524Q582.37354,953.4284,572.76447,949.6541Q559.76843,944.819,558.0191,944.3913L556.6419,943.8215"/>
</g>
<g style="fill:rgb(0,4,18); fill-opacity:1.0; stroke-linejoin: miter">
<path d="M620.74817,926.58044L619.7946,926.92004Q606.4647,932.7162,589.3537,941.97394Q579.3625,947.1763,564.5387,956.7295L568.97046,954.4082Q582.59436,948.61707,587.78973,945.85895Q597.6267,940.5762,606.40454,935.4627Q618.06995,928.38513,619.46747,927.2949L620.74817,926.58044"/>
</g>
<g style="fill:rgb(0,4,18); fill-opacity:1.0; stroke-linejoin: miter">
<path d="M623.75085,942.4655L622.9628,942.78296Q612.7882,947.6621,596.49335,957.4751Q587.43994,962.9994,578.01117,970.11115L581.624,967.985Q592.88745,962.73846,597.11847,960.2105Q605.105,955.33746,612.18756,950.61017Q621.6022,944.11536,622.71155,943.1212L623.75085,942.4655"/>
</g>
<g style="fill:rgb(0,4,18); fill-opacity:1.0; stroke-linejoin: miter">
<path d="M719.7871,1229.88L719.7353,1229.9634Q719.0048,1231.402,718.19586,1233.527Q713.2714,1246.8643,712.65765,1248.224L708.50684,1257.8278Q705.00116,1265.348,700.43115,1271.5759Q695.7618,1277.8811,689.41064,1283.8701Q687.5065,1285.7457,680.9402,1291.4497Q662.93896,1306.4999,663.059,1306.8359Q692.4766,1289.2976,705.89136,1268.3512Q711.2576,1259.479,713.9117,1251.941Q718.4527,1239.2191,719.7871,1229.88"/>
</g>
<g style="fill:rgb(0,4,18); fill-opacity:1.0; stroke-linejoin: miter">
<path d="M738.9689,1231.0457L738.93256,1231.1152Q738.427,1232.3031,737.901,1234.0433L734.37695,1245.852Q733.50977,1248.6224,732.2416,1252.0404Q728.69305,1261.3746,725.29474,1266.8877Q721.6875,1272.9025,716.85864,1278.9243Q710.3344,1286.9497,698.62683,1300.4597L694.86664,1305.2363Q719.42944,1283.9501,729.62714,1264.7203Q733.2373,1258.075,735.68854,1249.3818Q738.62885,1238.4387,738.9689,1231.0457"/>
</g>
<g style="fill:rgb(0,4,18); fill-opacity:1.0; stroke-linejoin: miter">
<path d="M749.5282,1262.41L749.51544,1262.4191Q749.50385,1262.4274,749.4964,1262.4332L749.48987,1262.4387L749.4851,1262.4436L749.48206,1262.448L749.4806,1262.452L749.4806,1262.4562L749.4819,1262.4606Q749.48596,1262.4689,749.49786,1262.4849L749.49286,1262.4742Q749.4905,1262.4691,749.4892,1262.4641L749.4885,1262.4595L749.48926,1262.4558L749.49176,1262.4537L749.49646,1262.4536Q749.5248,1262.4589,749.5272,1262.4584Q749.53656,1262.4595,749.5458,1262.4572L749.5494,1262.4553L749.5518,1262.4526L749.5526,1262.449L749.5514,1262.4441L749.54785,1262.438Q749.543,1262.4312,749.54236,1262.4304L749.5422,1262.4308Q749.5452,1262.4386,749.5468,1262.4438L749.54865,1262.4507L749.5498,1262.458L749.55,1262.4657L749.54865,1262.473L749.54535,1262.4796L749.53973,1262.4852L749.5337,1262.4879L749.5293,1262.4865L749.52625,1262.4818L749.5245,1262.4745L749.5236,1262.4653Q749.5233,1262.4552,749.5241,1262.4443Q749.52606,1262.4219,749.5282,1262.41"/>
</g>
<g style="fill:rgb(0,4,18); fill-opacity:1.0; stroke-linejoin: miter">
<path d="M403.65424,1030.6904L403.38922,1030.1771Q398.17023,1021.48157,382.95923,1002.03815Q380.52393,999.0422,378.49924,997.8884Q377.48975,997.34094,376.6002,997.4303L375.74353,997.70825Q374.91827,998.1601,374.23022,999.4251L373.57938,1000.9228L373.0029,1002.88574L370.76465,1012.3334Q368.0783,1023.8867,361.46228,1054.0088Q360.57214,1058.2794,361.25372,1059.9824L361.64603,1060.7288Q362.11792,1061.3365,362.83328,1061.4791Q364.3014,1061.72,366.2952,1060.6292Q377.46878,1053.718,384.54507,1048.419Q375.4423,1052.7506,365.1573,1058.4629Q362.82376,1059.6805,362.59515,1059.2686Q363.07077,1058.5566,365.3338,1048.797L375.15793,1004.9033Q376.2522,1000.5216,376.42706,1000.44495Q376.825,999.45935,377.25357,999.1587L377.7042,999.0333Q378.16968,999.0812,378.75223,999.83795Q387.39923,1013.6006,403.65424,1030.6904"/>
</g>
<g style="fill:rgb(0,4,18); fill-opacity:1.0; stroke-linejoin: miter">
<path d="M342.7696,1029.1455L343.29245,1028.8307Q352.68405,1022.30426,375.36465,1002.179Q377.47073,1000.4358,378.98715,999.72034Q380.86838,999.0307,381.20697,999.17676Q394.0987,1000.86444,404.5257,1001.1805Q404.7138,1001.1546,402.93707,1000.92194Q398.16772,999.60596,395.09732,999.0271Q387.41315,997.61194,383.03824,996.9905Q378.71872,996.5546,376.3332,998.1583Q373.73975,999.81384,373.05743,1000.54236Q362.3545,1009.9162,358.26944,1013.67377Q349.0156,1022.2165,342.7696,1029.1455"/>
</g>
<g style="fill:rgb(0,4,18); fill-opacity:1.0; stroke-linejoin: miter">
<path d="M566.87305,1497.9011L566.873,1497.8993Q566.87317,1497.8958,566.8738,1497.8958Q566.8744,1497.895,566.8758,1497.8947L566.87756,1497.8944L566.8799,1497.8943L566.8829,1497.8944Q566.8862,1497.8945,566.89124,1497.8949Q566.9,1497.8955,566.9178,1497.897Q566.9216,1497.8973,566.9208,1497.8975Q566.92334,1497.897,566.93463,1497.8959L566.9447,1497.8949L566.95026,1497.8945L566.95483,1497.8944L566.9586,1497.8947L566.9617,1497.895Q566.96655,1497.8961,566.96844,1497.8973L566.9687,1497.8972L566.96875,1497.896L566.96686,1497.8953L566.9616,1497.895L566.95374,1497.895L566.9439,1497.8955L566.9327,1497.8961Q566.92084,1497.897,566.909,1497.898Q566.88495,1497.8999,566.87305,1497.9011"/>
</g>
</g>
</svg>